<svg xmlns="http://www.w3.org/2000/svg" viewBox="0 0 797.75 812.41"><title>Ativo 8</title><g id="Camada_2" data-name="Camada 2"><g id="Camada_1-2" data-name="Camada 1"><path d="M293.69,122.39c-8.15,7.35-15.61,17-22.18,28.7a259.3,259.3,0,0,0-18.24,41,460.2,460.2,0,0,0-13.86,47.78c-3.86,16.5-7.11,33-9.65,48.95-1.77,11.09-3.24,21.69-4.39,31.65,19.92-38.17,37.78-74.63,53.21-108.67,26.42-58.2,33.64-86.47,34.24-100.19A46.14,46.14,0,0,0,293.69,122.39Z"/><path d="M432.88,676.92c.56,4.26,1.77,6.84,3.6,7.69l.13.07a9.33,9.33,0,0,0,5.38.65c3.44-.45,9.47-2.43,18.77-9.28,21.1-16.85,38-49.95,50.34-98.37a572,572,0,0,0,15.62-90.61q-12.54,16-25.85,35a594.13,594.13,0,0,0-42.61,70.72c-12.24,23.91-20.53,46.64-24.66,67.54C432.56,667.11,432.32,672.69,432.88,676.92Z"/><path d="M747.19,731.31A174.15,174.15,0,0,1,753,582.14a396.17,396.17,0,0,0,44.71-182.72C797.75,179.14,618.61,0,398.33,0H397C177.74.22.11,178.16,0,397.32,50.51,419.56,98.42,422,142.73,404.5a171.25,171.25,0,0,0,36.39-19.86c0-5,.13-10.12.29-15.14a758.35,758.35,0,0,1,14.43-121.17c9.24-46.85,22.8-86.43,40.29-117.63C255.24,93.2,281.69,72.12,312.76,68c11.83-1.56,21.56.54,28.9,6.25S353.45,88.87,355,100.77c2.88,21.81-7.33,59-31.2,113.68-16.95,38.76-35.4,76.37-54.82,111.8-31.94,58.21-42.77,82.37-46,92.31.31,5.1.89,10.89,1.73,17.25,2.6,19.75,6.48,37.4,11.52,52.47,8.85,26.7,21.22,40.44,37.81,42a50.13,50.13,0,0,0,6.37-.45c10.33-1.36,20.64-6.16,30.69-14.27,13.33-10.68,25.85-24.4,37.24-40.8a378.88,378.88,0,0,0,29.94-51c8.26-17.12,14.23-31.69,17.76-43.3l.19-.55c.53-1.46,1.09-2.8,1.67-4a102.92,102.92,0,0,1,2.63-12l.24-.72c4.09-11.11,12.18-13.75,16.63-14.33,8.55-1.12,14.14,1.88,17.33,4.6,4.33,3.72,6.85,8.1,7.5,13a24.31,24.31,0,0,1-.55,8.75l-.12.45c-2.67,9.57-3.24,20.43-1.67,32.29a64.17,64.17,0,0,0,3.33,13.92c.27.68.52,1.26.75,1.75,4.2-3.51,14.07-14.83,32.07-51.09,4-8.06,7.56-14.88,10.69-20.24l.12-.2c9.32-15.13,20.27-23.61,32.55-25.23,15.84-2.08,29,7.82,39,29.42l.24.54a161.49,161.49,0,0,1,8,26.81c28.65-24.08,57.58-40.83,86.19-49.88l.57-.18,4.24-.79c7.8-1,12.72,1.52,15.46,3.86a18,18,0,0,1,6.4,11.31v0c.59,4.5.31,15.55-14.92,21l-.19.07c-15.53,5.25-31.34,14.09-47,26.29a480.75,480.75,0,0,0-46,41.21c.72,44.95-4.94,92.87-16.86,142.5C539.88,639,517.72,682.23,488.68,707.6l-.29.25c-13.8,11.17-27.61,17.72-41,19.49a61.5,61.5,0,0,1-7.13.51l-1.5,0c-16.32,0-28.45-5.36-36-16-6.74-9.43-10.81-19.15-12.09-28.89-1.15-8.7-.85-18.77.9-29.94l.06-.34c5.07-26.47,15.5-54.78,31-84.12A662.57,662.57,0,0,1,475,485.12c18.39-24.94,36.19-46.62,53-64.5-.4-5.06-1.15-11.77-2.24-20-1.53-11.61-3.32-19.06-4.89-23.82a230.65,230.65,0,0,0-12,23.41c-9.25,20.52-18.11,35.69-27.06,46.31l-.17.19c-10.87,12.26-22.68,19.3-35.09,20.93-11.28,1.49-26.28-1.08-37.78-19.51A411.83,411.83,0,0,1,376.45,504c-13.55,19.79-28.13,35.65-43.35,47.15-15.75,11.9-31.78,19-47.63,21.08a85.81,85.81,0,0,1-13,.7l-.5,0c-18.4-1.25-33.87-8-46-20-11.37-11.29-20.42-25.49-26.9-42.21-6.21-16-10.43-30.34-12.55-42.66-2-11.51-3.46-20.77-4.35-27.51-.43-3.22-.81-6.54-1.15-9.94a210,210,0,0,1-22.67,10.72,203.21,203.21,0,0,1-76.06,14.64c-4,0-8.08-.11-12.12-.34A240.91,240.91,0,0,1,2.29,441.28C23.78,641.43,193.64,797.76,399.42,797.76c21,.1,41.8-2.64,62.61-4.86,59.28-6.34,119-9.63,177.83.7L745.3,812.13a22.14,22.14,0,0,0,12.4-1.53A21.65,21.65,0,0,0,769,782.09Z"/></g></g></svg>