<?xml version="1.0" encoding="utf-8"?>
<!-- Generator: Adobe Illustrator 25.1.0, SVG Export Plug-In . SVG Version: 6.00 Build 0)  -->
<svg version="1.1" id="Layer_1" xmlns="http://www.w3.org/2000/svg" xmlns:xlink="http://www.w3.org/1999/xlink" x="0px" y="0px"
	 viewBox="0 0 2556 2000" style="enable-background:new 0 0 2556 2000;" xml:space="preserve">
<style type="text/css">
	.st0{fill:#F2DCC9;stroke:#F2DCC9;stroke-miterlimit:10;}
	.st1{fill:#215E4B;}
	.st2{fill:#3C8F7C;}
	.st3{fill:#9BC1F9;}
	.st4{fill:#86B1F2;}
	.st5{fill:#F7A491;}
	.st6{fill:#F7CC7F;}
	.st7{fill:#F47458;}
	.st8{fill:#B75742;}
	.st9{fill:#13375B;}
	.st10{fill:#F48C7F;}
	.st11{fill:#96D9C9;}
	.st12{fill:#50BFA5;}
	.st13{fill:#FFFFFF;}
	.st14{fill:#355389;}
	.st15{fill:#327F6B;}
	.st16{clip-path:url(#SVGID_2_);}
	.st17{clip-path:url(#SVGID_4_);}
	.st18{fill:#F29383;}
	.st19{fill:#C24C32;}
	.st20{clip-path:url(#SVGID_6_);}
	.st21{fill:#BF7154;}
	.st22{fill:#A85D42;}
	.st23{clip-path:url(#SVGID_8_);}
	.st24{fill:#C5DBFC;}
	.st25{fill:#F5866E;}
	.st26{clip-path:url(#SVGID_10_);}
	.st27{clip-path:url(#SVGID_12_);}
	.st28{fill:#466EB6;}
	.st29{fill:#184655;}
	.st30{clip-path:url(#SVGID_14_);}
	.st31{fill:#A3573C;}
	.st32{clip-path:url(#SVGID_16_);}
	.st33{clip-path:url(#SVGID_18_);}
	.st34{clip-path:url(#SVGID_20_);}
	.st35{clip-path:url(#SVGID_22_);}
	.st36{fill:#47637F;}
	.st37{clip-path:url(#SVGID_24_);}
	.st38{clip-path:url(#SVGID_26_);}
	.st39{fill:#8CA5D2;}
	.st40{fill:#0E2E35;}
	.st41{clip-path:url(#SVGID_28_);}
	.st42{fill:#FADFAE;}
	.st43{fill:#96482A;}
	.st44{clip-path:url(#SVGID_30_);}
	.st45{fill:#F8A492;}
	.st46{clip-path:url(#SVGID_32_);}
	.st47{opacity:0.5;fill:#F47458;}
	.st48{clip-path:url(#SVGID_34_);}
</style>
<g>
	<path class="st0" d="M2179.74,1885.5c159.07-209.11,254.24-474.71,254.24-763.79c0-674.12-430.46-1022.3-1155.98-1022.3
		c-693.53,0-1155.98,348.18-1155.98,1022.3c0,289.08,95.18,554.68,254.24,763.79H2179.74z"/>
	<g>
		<path class="st1" d="M489.2,1754.57h4.55c1.5-15.3,4.44-32.21,9.68-49.9c19.82-66.89,11.15-75.54,44.59-117.36
			c33.44-41.81,35.92-128.52,35.92-128.52s16.1-98.47,0-141.83c-16.1-43.35-17.34-86.71-56.36-132.54c0,0-7.43,61.31-16.72,89.18
			c-9.29,27.87-18.11,54.5-11.22,121.39c6.89,66.89,11.17,72.46,12.74,89.8c1.58,17.34-0.9,90.44,2.82,102.51
			c3.72,12.07-21.68,95.68-23.54,131.6C491.11,1729.71,490.1,1742.01,489.2,1754.57z"/>
		<path class="st2" d="M503.45,1754.57c6.45-14.89,17.81-29.68,37.7-38.56c52.02-23.22,87.12-22.71,111.27-78.45
			c24.15-55.74,24.15-131.92,32.52-147.71c0,0-22.3-3.72-44.59,36.23c-22.3,39.95-37.42,69.68-50.3,92.9
			c-12.88,23.23-31.46,16.72-47.25,34.37c-13.24,14.79-25.46,49.21-30.1,66.67c-1.51,5.67-3.7,11.14-6.59,16.25
			c-2.63,4.64-5.73,10.3-7.59,14.32c-0.41,0.9-0.82,2.26-1.23,3.98H503.45z"/>
		<path class="st1" d="M356.65,1490.38c-3.72,47.69,26.63,43.97,27.87,74.32c1.24,30.35,40.88,81.75,59.24,118.29
			c9.55,19.01,13.08,48.06,14.26,71.57h14.75c-5.71-59.51-29.85-100.93-44.28-134.13c-18.58-42.73-21.37-62.24-5.57-95.69
			s-7.43-119.84,15.05-158.36c22.48-38.52,10.96-98.98,5.79-122.2c-5.17-23.23,0.53-39.02,5.17-63.5
			c4.64-24.49-5.17-60.05-5.17-60.05c-0.84,30.35-23.94,71.84-40.66,98.47c-16.72,26.63-48.31,99.09-44.59,131.92
			c3.72,32.82,1.86,35.3,1.86,35.3C348.6,1430.3,360.36,1442.69,356.65,1490.38z"/>
		<path class="st2" d="M445.17,1715.81c1.9,5.69,7.98,20.23,13.55,38.75h9.05c-4.12-23.58-11.22-50.94-23.21-66.62
			c-24.15-31.59-72.46-45.21-78.04-68.13c-5.57-22.92,0.62-91.66-34.68-130.06c0,0,4.96,42.75,0,54.2
			c-4.95,11.45-47.07,64.71-22.3,109.3c24.77,44.59,80.51,39.02,97.86,48.93S442.08,1706.52,445.17,1715.81z"/>
		<path class="st2" d="M422.88,1510.16c-0.62,45.83,35.3,63.17,34.68,88.56c-0.62,25.39,7.43,52.64,14.24,73.08
			c4.31,12.94,1.92,48.96,1.16,82.76h9.97c2.51-24.84,5.26-60.68,4.35-76.57c-1.24-21.68,8.67-39.02,9.91-76.8
			c1.24-37.78,9.29-71.84-7.43-119.53c-16.72-47.69-13.63-104.67-83.61-157.31c0,0-12.39,55.74-3.1,86.09
			C412.35,1440.79,423.5,1464.33,422.88,1510.16z"/>
		<path class="st3" d="M493.78,1715.46h-6.69h-89.24c-6.56,0-11.4,6.14-9.88,12.53l34.97,147.46c1.09,4.59,5.18,7.82,9.88,7.82
			h54.27h6.69h54.27c4.7,0,8.79-3.24,9.88-7.82l34.97-147.46c1.52-6.39-3.32-12.53-9.88-12.53H493.78z"/>
	</g>
	<g>
		<rect x="935.38" y="1628.63" class="st4" width="15.76" height="230.52"/>
		<g>
			<path class="st5" d="M1174.94,1800.19c0,0,3.45,35.98,1.18,47.71c-0.3,1.57-0.97,3.56-1.75,5.75
				c-2.34,6.58,4.06,26.67,4.06,26.67l85.78,0.3c4.67,0.02,1.55-2.81-2.25-5.41c-6.22-4.25-11.23-7.05-31.05-15.91
				c-1.29-0.58-6-3.36-7.7-4.32c-4.31-2.44-8.65-6.31-12.4-10.19c-6.24-6.47-7.19-38.18-7.19-38.18L1174.94,1800.19z"/>
			<path class="st6" d="M1223.19,1854.98c-22.61,5.82-39.42,2.25-48.85-1.25c-2.33,6.57-6.73,28.78-4.11,28.78
				c21.51,0,39.72,3.89,101.35,2.96c2.21-0.03,1.94-7.28,0.5-8.88C1268.11,1872.17,1224.9,1855.95,1223.19,1854.98z"/>
			<path class="st5" d="M1272.02,1740.53c0,0,18.76,31.37,21.79,42.94c0.41,1.55,0.66,3.62,0.91,5.93
				c0.73,6.91,15.27,22.65,15.27,22.65l78.17-33.76c4.26-1.84,0.19-3.17-4.4-4.03c-7.51-1.4-13.28-1.96-35.15-2.15
				c-1.43-0.01-6.92-0.67-8.89-0.88c-4.98-0.51-10.61-2.31-15.71-4.35c-8.49-3.41-23.12-31.88-23.12-31.88L1272.02,1740.53z"/>
			<path class="st6" d="M1339.72,1771.23c-18.04,14.27-34.89,17.68-44.98,18.24c0.73,6.9,6.38,28.85,8.76,27.81
				c19.57-8.54,37.82-12.22,93.49-37.52c1.99-0.91-1.4-7.39-3.4-8.27C1388.05,1769.05,1341.69,1771.43,1339.72,1771.23z"/>
			<path class="st7" d="M1005.23,1472.67v18.49l181.85,36.56l45.14,129.6l-25.15-16.42l5.81,199.57l-38.25,0.25
				c0,0-66.27-167.44-44.53-251.65l-201.26,2.94c0,0-91.22-33.67-44.15-135.19L1005.23,1472.67z"/>
			<path class="st8" d="M1005.23,1491.16c0,0,188.64,1.21,202.04,11.07c13.4,9.86,113.93,254.94,113.93,254.94l-43.85,15.65
				c0,0-87.23-139.04-91.85-148.96s-38.4-82.42-51.3-89.82C1121.3,1526.65,1005.23,1491.16,1005.23,1491.16z"/>
		</g>
		<path class="st4" d="M859.8,1869.43h156.63c7.21,0,13.06,5.85,13.06,13.06l0,0c0,1.26-1.02,2.28-2.28,2.28H849.02
			c-1.26,0-2.28-1.02-2.28-2.28l0,0C846.74,1875.28,852.59,1869.43,859.8,1869.43z"/>
		<path class="st4" d="M930.35,1859.15h19.19c5.68,0,10.28,4.6,10.28,10.28l0,0c0,5.68-4.6,10.28-10.28,10.28h-19.19
			c-5.68,0-10.28-4.6-10.28-10.28l0,0C920.08,1863.75,924.68,1859.15,930.35,1859.15z"/>
		<path class="st9" d="M1018.58,1163.4c0.85-20.52-2.17-40.79-11.35-59.9c-7.9-16.44-27.45-25.77-45.27-25.79
			c-56.61-0.07-63.8,74.72-99.84,103.57c-11.01,8.82-23.32,16-33.74,25.5c-38.47,35.1-21.14,100.08,14.18,130.86
			c24.51,21.35,63.04,33.49,93.25,16.79c15.77-8.71,27.74-23.2,36.27-39.07c12.11-22.53,19.91-48.52,28.52-72.52
			C1009.77,1217.28,1017.45,1190.68,1018.58,1163.4z"/>
		<path class="st10" d="M1174.74,1378.45l-123.18-34.34c0,0-25.95-34.86-59.34-81.63c-10.92,10.8-16.98,27.4-27.98,38.1l81.54,90.19
			c2.94,3.25,7.12,5.12,11.5,5.13l113.19,0.38l38.73,3.09v-24.79L1174.74,1378.45z"/>
		<path class="st11" d="M997.41,1352.3c0,0-42.27-43.35-53.15-62.18c-10.88-18.83,7.41-6.57,26.09-11.53
			c7.07-1.88,5.28-43.33,18.66-29.85c21.94,22.11,49.52,60.76,49.52,60.76L997.41,1352.3z"/>
		<path class="st12" d="M937.3,1229.72c0,0-37.94-7.49-55.25,6.97c-17.31,14.47,3.71,143.07,3.69,164.39
			c-0.02,21.32-11.89,81.55-11.89,81.55s114.99,20.13,133.25-11.88c0,0,5.2-121.93,4.42-137.26c-0.77-15.33-17.82-78.04-22.54-84.76
			C984.28,1242.02,937.3,1229.72,937.3,1229.72z"/>
		<path class="st5" d="M937.06,1171.04c0,0-0.2,1.13-0.56,3.06c-1.72,9.26-8.35,39.98-12.82,48.42
			c-5.41,10.21,18.52,42.75,41.55,38.78c6.86-1.18-5.8-29.91-5.19-32.95c1.16-5.83,2.74-13.77,4.36-21.92
			c0.91-4.6,1.83-9.26,2.7-13.64c2.46-12.45,4.47-22.63,4.47-22.63L937.06,1171.04z"/>
		<path class="st7" d="M936.51,1174.1c0.36-1.93,0.56-3.06,0.56-3.06l34.51-0.86c0,0-2.01,10.18-4.47,22.63
			c-0.86,4.36-1.78,8.99-2.69,13.56c-5.33-0.78-10.9-3.37-16.48-8.25c-6.09-5.32-10.07-11.71-12.48-18.53
			C935.88,1177.41,936.24,1175.54,936.51,1174.1z"/>
		<path class="st5" d="M960.29,1092.75c0,0-16.27-1.88-26.46,11.29c-10.2,13.16-21.19,53.86,4.14,75.99
			c25.33,22.13,50.36-2.92,54.07-29.48C995.75,1123.99,997.2,1091.79,960.29,1092.75z"/>
		<path class="st5" d="M999.54,1150.15c-3.02,5.87-8.1,9.11-11.34,7.25c-3.24-1.86-3.41-8.12-0.39-13.99
			c3.02-5.86,8.1-9.11,11.34-7.25C1002.39,1138.03,1002.56,1144.29,999.54,1150.15z"/>
		<path class="st9" d="M962.11,1088.39c0,0-21.73,38.71-37.28,40.5c-15.55,1.79-17.59,22.36-17.59,22.36s5.56-47.39,20.95-56.53
			C943.59,1085.57,962.11,1088.39,962.11,1088.39z"/>
		<path class="st5" d="M928.91,1138.61c1.26,6.88-1.28,13.18-5.68,14.08c-4.4,0.9-8.99-3.94-10.26-10.81
			c-1.26-6.87,1.28-13.18,5.68-14.08C923.05,1126.9,927.65,1131.74,928.91,1138.61z"/>
		<path class="st5" d="M1106.56,1374.32l-106.8-23.63c0,0-38.62-49.63-75.72-92.34c-10.92,10.8-16.98,27.41-27.98,38.1l81.54,90.19
			c2.94,3.25,7.12,5.12,11.5,5.13l113.19,0.38l38.73,3.09v-24.79L1106.56,1374.32z"/>
		<path class="st11" d="M929.23,1348.17c0,0-42.27-43.35-53.15-62.18c-10.88-18.83-2.81-50.38,15.87-55.34
			c18.68-4.96,78.39,74.72,78.39,74.72L929.23,1348.17z"/>
		<g>
			<path class="st8" d="M1325.97,1252.74h-176.14c-4.66,0-8.86,2.82-10.63,7.13l-54.23,132.28h-97.1c-2.72,0-4.92,2.2-4.92,4.91l0,0
				c0,2.71,2.2,4.91,4.92,4.91h276.37c7.6,0,14.49-4.46,17.6-11.39l54.61-121.65C1339.86,1261.33,1334.3,1252.74,1325.97,1252.74z"
				/>
			<path class="st13" d="M1231.14,1329.77c-1.19,5.94-6.37,9.91-11.58,8.87c-5.2-1.04-8.46-6.7-7.27-12.64
				c1.19-5.94,6.37-9.91,11.58-8.87C1229.08,1318.17,1232.33,1323.83,1231.14,1329.77z"/>
		</g>
		<path class="st13" d="M970.08,1165.4l-23.87-1.24c0,0,0.08,9.09,10.56,9.94C969.56,1175.14,970.08,1165.4,970.08,1165.4z"/>
		<path class="st14" d="M1044.74,1602.09l-10.78-44.86c-7.54-31.38-35.32-54.2-67.57-55.51l-136.5-5.52l-4.21-13.9l141.27,5.71
			c38.35,1.55,71.39,28.7,80.35,66.01l11.45,47.67C1054.88,1601.86,1050.15,1601.99,1044.74,1602.09z"/>
		<path class="st6" d="M861.65,1578.2c0,0,187.54,3.21,207.09,0c19.55-3.21,28.01,21.3,22.18,34.14
			c-5.84,12.84-21.89,17.8-45.52,18.97c-23.64,1.17-220.31,6.71-225.86,1.46c-4.53-4.29-64.15-208.13-85.85-282.67
			c-4.34-14.9,4.22-30.47,19.1-34.84l0,0c14.82-4.35,30.38,4.06,34.86,18.84L861.65,1578.2z"/>
		<g>
			<path class="st9" d="M968.28,1431.5h750.41c8.15,0,14.77-6.61,14.77-14.77l0,0c0-8.16-6.61-14.77-14.77-14.77H968.28
				c-8.15,0-14.77,6.61-14.77,14.77l0,0C953.52,1424.89,960.13,1431.5,968.28,1431.5z"/>
			<polygon class="st9" points="1140.99,1884.78 1162,1884.78 1116.72,1431.5 1095.7,1431.5 			"/>
			<polygon class="st9" points="962.4,1884.78 941.38,1884.78 986.67,1431.5 1007.69,1431.5 			"/>
			<polygon class="st9" points="1712.44,1884.78 1733.46,1884.78 1688.18,1431.5 1667.16,1431.5 			"/>
			<polygon class="st9" points="1533.86,1884.78 1512.84,1884.78 1558.13,1431.5 1579.14,1431.5 			"/>
		</g>
	</g>
	<path class="st2" d="M2348.72,1889H314.02c-2.31,0-4.19-1.88-4.19-4.19l0,0c0-2.31,1.87-4.19,4.19-4.19h2034.69
		c2.31,0,4.19,1.87,4.19,4.19l0,0C2352.9,1887.13,2351.03,1889,2348.72,1889z"/>
	<g>
		<path class="st2" d="M2067.62,1585.89c-1.55-13.7-3.39-27.72-9.75-39.95c-7.73-14.87-21.32-25.6-33.19-37.42
			c-22.18-22.08-39.25-49.28-49.49-78.88c-7.92-22.89-11.87-47.27-22.79-68.89c-6.67-13.2-15.75-25-23.33-37.69
			c-17.89-30.01-27.63-65.48-51.9-90.6c-4.67,30.46,4.56,62.78,24.6,86.15c5.98,6.97,12.91,13.25,17.46,21.23
			c8.26,14.48,7.51,32.15,8.48,48.8c1.82,31.3,10.64,62.17,25.63,89.69c15.92,29.24,38.9,55.27,47.41,87.46
			c6.38,24.13,4.48,51.19,18.08,72.1c1.47,2.26,3.16,4.54,3.52,7.22c0.2,1.51-0.03,3.03-0.27,4.53c-0.3,1.94-0.61,3.88-0.91,5.83
			c-3.09,19.75-6.29,44.87,10.68,59.65c11.76,10.24,26.89,10.47,35.34-3.13c8.5-13.7,7.75-33.75,7.12-49.16
			C2073.26,1637.15,2070.51,1611.41,2067.62,1585.89z"/>
		<path class="st15" d="M2098.18,1570.01c-6.6-22.86-16.85-44.63-21.98-67.86c-4.98-22.53-5.02-45.83-5.04-68.91
			c-0.02-25.29-0.04-50.58-0.05-75.87c-0.01-15.75-0.03-31.58-2.63-47.1c-5.6-33.41-22.96-64.3-25.9-98.05
			c-1.27-14.59,0.21-29.34-1.4-43.91c-0.92-8.32-3.05-16.81-6.9-24.19c-4.14-7.94-15.58-7.59-19.33,0.54
			c-8.44,18.27-13.78,38.03-10.38,57.61c2.04,11.74,7.13,22.7,10.93,34c16.91,50.31,7.93,106.01,21.02,157.45
			c3.95,15.53,9.92,30.76,10.62,46.77c1.66,38.32-26.96,73.32-24.33,111.58c2.15,31.37,24.71,57.34,34.17,87.32
			c5.3,16.78,6.43,34.7,12.11,51.36c4.41,12.94,14.67,28.66,30.6,24.73c15.13-3.73,10.56-16.08,9.88-27.87
			C2107.29,1647.7,2109.44,1608.98,2098.18,1570.01z"/>
		<path class="st2" d="M2132.81,1590.95c-0.67-11.88-2.67-23.82-1.01-35.6c1.4-9.95,5.36-19.32,8.19-28.96
			c5.3-18.06,6.61-37.02,7.9-55.8c2.33-34.14,4.67-68.28,7-102.42c3.63-53.07,7.27-106.29,17.19-158.55
			c2.75-14.51,5.85-30.23-0.67-43.47c-1.37-2.79-4.08-5.75-7.04-4.82c-2.11,0.66-3.15,2.99-3.91,5.07
			c-21.69,58.95-29.89,122.41-54.1,180.36c-5.8,13.88-12.54,27.54-15.55,42.29c-3.6,17.71-1.63,36-1.16,54.06
			c0.67,25.91-1.86,52.02-9.01,76.92c-3.74,13.03-8.75,25.77-10.81,39.17c-2.56,16.71-0.41,33.74,1.19,50.57
			c3.08,32.36,4.12,64.91,3.12,97.41c-0.59,19.1,15.54,18.6,26.22,6.87c7.47-8.21,7.4-17.22,9.96-27.43
			C2118.71,1653.07,2134.84,1627.32,2132.81,1590.95z"/>
		<path class="st15" d="M2032.06,1642.75c-14.26-22.91-42.66-35.93-51.78-61.34c-2.32-6.46-3.22-13.42-6.06-19.68
			c-6.29-13.9-20.6-21.75-34.66-28.14c-1.95-0.89-4.17,0.53-4.2,2.68l0,0c-0.05,3.42,1.57,6.68,4.4,8.58
			c10.83,7.29,19.07,18.44,22.73,31.01c4.34,14.89,2.46,31.22,7.86,45.76c4.53,12.21,13.87,22.18,18.25,34.45
			c4.01,11.21,3.59,23.45,5.47,35.21c1.88,11.76,7.11,24.23,17.9,29.2C2051.04,1738.46,2041.27,1657.55,2032.06,1642.75z"/>
		<path class="st2" d="M2194.51,1635.19c-0.61,11.08,1.08,22.69-3.25,32.9c-2.77,6.53-7.76,11.81-11.86,17.6
			c-14.38,20.34-19.59,49.15-41.68,60.6c-1.46,0.76-3.08,1.43-4.7,1.13c-2.26-0.42-3.75-2.6-4.66-4.72
			c-5.42-12.62,0.66-26.83,4.26-40.09c0.63-2.32,1.16-4.91,0.05-7.04c-1.22-2.35-3.99-3.36-5.88-5.2
			c-3.77-3.67-3.42-9.75-2.67-14.96c1.87-13.04,4.5-25.96,7.88-38.69c1.91-7.22,4.12-14.5,8.28-20.69
			c4.58-6.82,11.23-11.91,17.45-17.27c27.51-23.66,48.58-54.77,60.37-89.12c2.55-7.44,4.83-15.29,10.1-21.11
			c5.27-5.82,14.68-8.82,21.1-4.3c4.57,3.22-14.15,33.33-16.33,36.94c-6.24,10.32-6.32,19.3-9.84,30.75
			C2214.5,1579.98,2196.16,1605.11,2194.51,1635.19z"/>
		<path class="st15" d="M2172.73,1648c4.09-10.57,8.21-21.27,9.55-32.52c1.5-12.51-0.49-25.3,1.65-37.71
			c2.75-15.96,12.05-30,16.66-45.52c3.33-11.21,4.14-22.99,6.14-34.51c5.71-32.95,21.21-65.15,16.76-98.29
			c-0.97-7.21-4.22-15.61-11.38-16.84c-6.48-1.11-12.38,4.81-14.06,11.17c-1.68,6.36-0.43,13.08,0.03,19.65
			c1.29,18.32-3.94,37.03-14.53,52.02c-10.18,14.4-24.94,25.24-34.1,40.31c-11.23,18.49-12.76,41.05-18.49,61.92
			c-11.4,41.5-39.99,77.7-45.2,120.42c-2.07,17,1.92,37.66,17.61,44.46C2148.76,1752.18,2162.46,1674.58,2172.73,1648z"/>
		<path class="st3" d="M2093.41,1700.66h-7.26h-96.88c-7.12,0-12.37,6.66-10.73,13.6l37.96,160.08c1.18,4.98,5.62,8.49,10.73,8.49
			h58.92h7.26h58.92c5.11,0,9.55-3.51,10.73-8.49l37.96-160.08c1.65-6.94-3.61-13.6-10.73-13.6H2093.41z"/>
	</g>
	<g>
		<g>
			
				<rect x="1319.6" y="444.92" transform="matrix(0.1269 -0.9919 0.9919 0.1269 552.297 1839.6393)" class="st3" width="3.06" height="322.35"/>
			<polygon class="st3" points="1163.74,619.51 1165.2,616.82 721.9,378.13 899.1,334.05 898.36,331.09 713.47,377.07 			"/>
			
				<rect x="726.54" y="493.45" transform="matrix(0.3182 -0.948 0.948 0.3182 -261.464 1235.2233)" class="st3" width="3.07" height="611.89"/>
			<polygon class="st3" points="2136.78,911.23 2138.97,909.09 1850.38,614.08 1850.11,613.96 1356.66,401 1186.38,376.09 
				1185.94,379.11 1356.01,404 1848.62,616.66 			"/>
			<polygon class="st3" points="1217.09,981.33 1239.1,823.1 1237.98,822.66 986.99,724.15 762.87,628.58 761.66,631.39 
				985.83,726.98 1235.73,825.07 1214.06,980.91 			"/>
			<polygon class="st3" points="1200.14,982.47 1201.56,979.76 1000.58,874.71 1000.58,711.95 794.85,885.58 431.29,707.09 
				804.61,605.03 804.9,604.36 917.83,348.79 1180.92,378.95 1155.85,585.54 1158.88,585.91 1184.33,376.25 1182.8,376.08 
				915.94,345.49 915.48,346.52 802.39,602.46 422.68,706.27 795.3,889.21 796.06,888.57 997.52,718.54 997.52,876.56 			"/>
			<polygon class="st3" points="1834.49,634.38 1834.55,631.31 1492.66,624.35 1589.81,336.34 1586.91,335.36 1488.43,627.32 			"/>
			<polygon class="st3" points="2269.04,819.81 2270.51,817.12 1882.92,604.75 1631.2,378.01 1629.14,380.28 1881.16,607.23 			"/>
			
				<rect x="2039.98" y="803.78" transform="matrix(0.3411 -0.94 0.94 0.3411 493.1598 2516.3972)" class="st3" width="3.07" height="205.3"/>
			
				<rect x="1756.81" y="890.52" transform="matrix(0.967 -0.2547 0.2547 0.967 -166.0915 501.1534)" class="st3" width="191.37" height="3.07"/>
			
				<rect x="1534.52" y="921.61" transform="matrix(0.9976 -0.0699 0.0699 0.9976 -60.5489 117.1297)" class="st3" width="215.38" height="3.06"/>
			<polygon class="st3" points="1336.99,697.73 1337.47,697.68 1805.91,659.73 1805.66,656.68 1337.71,694.59 1194.13,609.33 
				1192.57,611.97 			"/>
			<polygon class="st3" points="1442.69,899.67 1445.39,898.21 1337.55,699.02 1243.76,826.35 1246.22,828.17 1337.15,704.72 			"/>
			<polygon class="st3" points="1162.34,599.87 1348.23,410.59 1605.22,337.32 1604.38,334.38 1346.61,407.86 1346.33,408.16 
				1160.15,597.73 			"/>
			
				<rect x="635.89" y="490.9" transform="matrix(0.1964 -0.9805 0.9805 0.1964 -62.3885 1095.9088)" class="st3" width="3.06" height="190.23"/>
			<polygon class="st3" points="586.88,943.53 587.94,940.66 421.85,879.16 421.85,691.1 556.82,586.29 556.53,585.29 
				500.22,394.45 497.28,395.32 553.3,585.15 418.79,689.61 418.79,881.29 			"/>
			
				<rect x="397.48" y="767.54" transform="matrix(0.8465 -0.5324 0.5324 0.8465 -318.9258 431.9897)" class="st3" width="384.41" height="3.07"/>
			
				<rect x="1703.76" y="280.3" transform="matrix(0.2876 -0.9577 0.9577 0.2876 845.8964 1907.6676)" class="st3" width="3.06" height="209.83"/>
			
				<rect x="1354.56" y="773.55" transform="matrix(0.0362 -0.9993 0.9993 0.0362 666.9545 2241.7102)" class="st3" width="282.18" height="3.06"/>
			<polygon class="st3" points="1010.06,912.52 1132.13,564.07 1129.24,563.05 1007.17,911.5 			"/>
			
				<rect x="644.76" y="325" transform="matrix(0.6751 -0.7377 0.7377 0.6751 -158.854 639.1902)" class="st3" width="3.07" height="349.91"/>
			<g>
				<path class="st3" d="M416.35,705.88v177.1l171.96,63.67l2.76-7.44l-166.78-61.75v-5.77l2.74,4.36l147.27-92.62l221.35,108.67
					l1.98-1.68l53.75-45.37l157.87,53.1l-5.2,14.83l7.49,2.64l5.23-14.94l2.32,0.78l2.53-7.53l-2.22-0.75l0.72-2.06l181.04,94.63
					l3.67-7.04l-182.06-95.17l42.95-122.6l167.32,65.68l-21.75,156.35l7.86,1.09l21.8-156.75l5.76,4.25l90.1-122.32l104.87,193.71
					l6.98-3.78l-107.91-199.33l154.07-12.48l-8.36,231l7.94,0.28l8.4-231.92l305.71-24.77l-0.64-7.91l-304.79,24.69l1.7-46.95
					l-7.94-0.28l-1.73,47.88l-156.85,12.71l-145.02-86.11l-4.05,6.83l145.26,86.25l-93.28,126.64l0.58-4.19l-2.92-1.14l-170.5-66.92
					l53.8-153.57l42.57,22.92l3.77-6.98l-43.69-23.52l10.42-29.74l-7.49-2.64l-10.01,28.56l-244.9-131.86l46.49-105.22l258.88,29.67
					l-25.08,206.57l5.32,0.65l-0.13,1.04l5.9,0.75l-7.52,7.66l5.66,5.56l11.74-11.96l308.82,39.35l1.01-7.88l-302.84-38.59
					l168.42-171.49l12.43-3.54l172.38,74.41l-49.27,146.06l351.83,7.17l0.15-7.94l-341-6.95l45.6-135.19l305.58,131.92l25.69,26.27
					l-110.44,244.18l-97.03-173.99l-161.34,221.59l6.67,4.31l153.66-209.75l98.28,176.58l116.17-256.84l257.88,263.62l5.67-5.55
					L1882.37,643.3l4.43-9.8l-7.24-3.26l-3.15,6.97l-24.62-25.17l-307.62-132.76l45.53-134.99l18.53-5.28l-2.17-7.63l-13.28,3.79
					l0.11-0.34l-7.52-2.54l-1.86,5.52l-221.11,63.03l-5.07-2.19l-173.01-25.32l-0.07,0.47l-1.18-0.13l-268.65-30.8l-1.18,2.68
					l-47.42,107.32l-137.22-73.88l173.45-43.15l-1.92-7.7l-193.37,48.09l155.85,83.92l-61.98,140.27l-29.79,8.14L518.1,377.27
					l-5.36,5.86l249.05,227.91L441.12,698.7l-4.08-1.37l-0.92,2.74l-11.83,3.23v-11l135.34-105.1l-0.77-2.6l-3.22-10.9l176.66,35.36
					l1.56-7.78l-180.75-36.18l-51.25-173.66l-7.62,2.23l50.07,169.67l-1.77-0.35l-1.56,7.78l5.87,1.17l3.63,12.31L416.35,688.42
					v17.06l-0.54,0.15L416.35,705.88z M1373.92,405.8l206.51-58.87l-43.58,129.19L1373.92,405.8z M1186.14,381.61l161.03,23.56
					l-1.85,0.53l-0.74,0.76l-173.37,176.53l-9.37-1.19L1186.14,381.61z M440.87,707l156.42,52.6l-23.45,14.75l-135.68-66.61
					L440.87,707z M1060.96,750.56l-57.95-22.74V706.7l-17.03,14.37l-224.41-95.7l-3.12,7.29L979.2,726.8L849.68,836.11l-234-78.7
					l140.88-88.6l-4.23-6.72l-146.37,92.06l-151.35-50.9l314.1-85.87l5.76,5.27l5.36-5.86l-2.07-1.89l28.6-7.82l0.76-1.74
					l62.49-141.42l245.46,132.17L1060.96,750.56z M995.08,723.79v0.92l-0.74-0.29L995.08,723.79z M1015.67,879.85l-12.66-6.62
					V736.34l55.32,21.71L1015.67,879.85z M858.49,839.07l128.95-108.84l7.63,3v144.81l17.94,9.38l-1.14,3.24L858.49,839.07z
					 M582.21,778.46l24.79-15.59l235.58,79.23l-48.09,40.59L582.21,778.46z M424.29,709.78l141.64,69.54L424.29,868.4V709.78z"/>
				<polygon class="st3" points="2260.91,818.13 1902.08,621.48 1867.91,622.08 1867.77,614.14 1888.04,613.79 1879.74,609.24 
					1870.51,600.93 1863.91,618.75 1856.46,615.99 1864.16,595.21 1625.7,380.46 1631.02,374.57 1867.12,587.24 1956.93,344.8 
					1964.37,347.56 1873.46,592.95 1884.34,602.75 1903.97,613.51 2208.73,629.49 2208.87,637.43 1918.02,621.2 2258.92,807.98 
					2199.88,634.22 2207.67,632.7 2267.98,812.95 2273.82,816.15 2270.01,823.12 2269.97,823.1 2274.19,844.56 2164.45,915.24 
					2160.15,908.57 2265.37,840.81 				"/>
				<polygon class="st3" points="1947.66,868.13 2141.65,938.56 2138.94,946.03 1941.37,874.3 1942,872.59 1758.61,920.88 
					1756.6,913.19 1946.37,863.22 				"/>
				
					<rect x="1532.08" y="919.17" transform="matrix(0.9976 -0.0699 0.0699 0.9976 -60.5478 117.1275)" class="st3" width="220.26" height="7.93"/>
				
					<rect x="1701.33" y="277.87" transform="matrix(0.2872 -0.9579 0.9579 0.2872 846.4935 1908.0045)" class="st3" width="7.94" height="214.7"/>
			</g>
			
				<rect x="1768.25" y="480.24" transform="matrix(0.3474 -0.9377 0.9377 0.3474 794.9961 2105.8545)" class="st3" width="284.32" height="3.06"/>
		</g>
		<g>
			
				<ellipse transform="matrix(0.5257 -0.8506 0.8506 0.5257 129.8519 939.5806)" class="st13" cx="907.55" cy="353.34" rx="78.88" ry="78.88"/>
		</g>
		<g>
			
				<ellipse transform="matrix(0.1602 -0.9871 0.9871 0.1602 -417.7248 1370.3654)" class="st13" cx="596.47" cy="930.67" rx="79.86" ry="79.86"/>
		</g>
		<g>
			<path class="st13" d="M1549.03,625.84c0,32.3-26.19,58.49-58.49,58.49s-58.49-26.19-58.49-58.49c0-32.3,26.19-58.49,58.49-58.49
				S1549.03,593.53,1549.03,625.84z"/>
		</g>
		<g>
			
				<ellipse transform="matrix(0.9806 -0.1961 0.1961 0.9806 -84.8938 378.7962)" class="st13" cx="1870.28" cy="618.07" rx="109.43" ry="109.43"/>
		</g>
		<g>
			
				<ellipse transform="matrix(0.9436 -0.331 0.331 0.9436 -56.771 471.6796)" class="st13" cx="1356.44" cy="402.52" rx="51.28" ry="51.28"/>
		</g>
		<g>
			
				<ellipse transform="matrix(0.0985 -0.9951 0.9951 0.0985 1387.3898 2275.79)" class="st13" cx="1949.83" cy="372.12" rx="74.5" ry="74.5"/>
		</g>
		<g>
			<circle class="st13" cx="525.65" cy="406.5" r="66.17"/>
		</g>
		<g>
			
				<ellipse transform="matrix(0.1299 -0.9915 0.9915 0.1299 428.5804 1676.6956)" class="st13" cx="1169.67" cy="594.14" rx="97.04" ry="97.03"/>
		</g>
		<g>
			
				<ellipse transform="matrix(0.2298 -0.9732 0.9732 0.2298 -353.7832 945.2937)" class="st13" cx="420.32" cy="696.16" rx="90.55" ry="90.55"/>
		</g>
		<g>
			<path class="st13" d="M2267.32,638.1c0,35.44-28.73,64.18-64.18,64.18s-64.18-28.73-64.18-64.18c0-35.44,28.73-64.18,64.18-64.18
				S2267.32,602.65,2267.32,638.1z"/>
		</g>
		<g>
			
				<ellipse transform="matrix(0.2298 -0.9732 0.9732 0.2298 153.8192 1848.8805)" class="st13" cx="1244.99" cy="827.26" rx="44.14" ry="44.14"/>
		</g>
		<g>
			<path class="st13" d="M1818.43,898.53c0,30.84-25,55.84-55.84,55.84s-55.84-25-55.84-55.84c0-30.84,25-55.85,55.84-55.85
				S1818.43,867.68,1818.43,898.53z"/>
		</g>
		<g>
			
				<ellipse transform="matrix(0.2204 -0.9754 0.9754 0.2204 911.5021 1836.7957)" class="st13" cx="1604.8" cy="348.19" rx="89.54" ry="89.54"/>
		</g>
		<g>
			<defs>
				
					<ellipse id="SVGID_1_" transform="matrix(0.0263 -0.9997 0.9997 0.0263 1217.9768 1939.9442)" cx="1604.8" cy="344.76" rx="86.11" ry="86.11"/>
			</defs>
			<clipPath id="SVGID_2_">
				<use xlink:href="#SVGID_1_"  style="overflow:visible;"/>
			</clipPath>
			<g class="st16">
				<path class="st9" d="M1645.99,332.5c0.5-12.02-1.27-23.88-6.65-35.07c-4.63-9.63-16.07-15.09-26.51-15.1
					c-33.14-0.04-37.36,43.74-58.45,60.64c-6.45,5.16-13.65,9.36-19.75,14.93c-22.52,20.55-12.38,58.6,8.3,76.61
					c14.35,12.5,36.91,19.61,54.6,9.83c9.23-5.1,16.24-13.58,21.24-22.88c7.09-13.19,11.66-28.4,16.7-42.46
					C1640.84,364.04,1645.33,348.47,1645.99,332.5z"/>
				<path class="st11" d="M1633.6,443.09c0,0-24.75-25.38-31.12-36.41c-6.37-11.03,4.34-3.85,15.27-6.75
					c4.14-1.1,3.09-25.37,10.92-17.48c12.84,12.94,28.99,35.57,28.99,35.57L1633.6,443.09z"/>
				<path class="st12" d="M1598.41,371.33c0,0-22.21-4.38-32.35,4.08c-10.14,8.47,2.17,83.76,2.16,96.24
					c-0.01,12.48-6.96,45.08-6.96,45.08s67.32,14.45,78.02-4.29c0,0,3.04-71.39,2.59-80.37c-0.45-8.98-10.43-45.69-13.19-49.62
					C1625.92,378.53,1598.41,371.33,1598.41,371.33z"/>
				<path class="st5" d="M1598.27,336.97c0,0-0.12,0.66-0.33,1.79c-1.01,5.42-4.89,23.41-7.51,28.35
					c-3.17,5.98,10.84,25.03,24.33,22.71c4.01-0.69-3.39-17.51-3.04-19.29c0.68-3.41,1.61-8.06,2.55-12.83
					c0.53-2.69,1.07-5.42,1.58-7.98c1.44-7.29,2.62-13.25,2.62-13.25L1598.27,336.97z"/>
				<path class="st7" d="M1597.94,338.76c0.21-1.13,0.33-1.79,0.33-1.79l20.21-0.5c0,0-1.18,5.96-2.62,13.25
					c-0.5,2.55-1.04,5.26-1.57,7.94c-3.12-0.46-6.38-1.97-9.65-4.83c-3.56-3.11-5.9-6.85-7.31-10.85
					C1597.58,340.7,1597.79,339.6,1597.94,338.76z"/>
				<path class="st5" d="M1611.87,291.13c0,0-9.53-1.1-15.5,6.61c-5.97,7.71-12.41,31.54,2.43,44.49
					c14.83,12.96,29.48-1.71,31.66-17.26C1632.63,309.42,1633.48,290.57,1611.87,291.13z"/>
				<path class="st9" d="M1626.72,287.22c0,0-18.57,26.6-36.24,23.04l-0.49-11.35l1.63-4.3l8.96-5.75l14.55-3.32L1626.72,287.22z"/>
				<path class="st5" d="M1634.85,324.74c-1.77,3.43-4.74,5.34-6.64,4.25c-1.89-1.09-2-4.75-0.23-8.19
					c1.77-3.43,4.74-5.34,6.64-4.25C1636.51,317.64,1636.62,321.31,1634.85,324.74z"/>
				<path class="st5" d="M1593.5,317.99c0.74,4.02-0.75,7.72-3.33,8.24c-2.58,0.53-5.27-2.31-6.01-6.33
					c-0.74-4.02,0.75-7.71,3.33-8.24C1590.07,311.13,1592.76,313.96,1593.5,317.99z"/>
				<path class="st13" d="M1617.6,333.67l-13.97-0.72c0,0,0.05,5.32,6.18,5.82C1617.29,339.37,1617.6,333.67,1617.6,333.67z"/>
				<path class="st13" d="M1617.6,333.67l-13.97-0.72c0,0,0.05,5.32,6.18,5.82C1617.29,339.37,1617.6,333.67,1617.6,333.67z"/>
				<path class="st11" d="M1574.43,442.21c0,0-14.58-32.31-16.79-44.85c-2.21-12.54,8.54-28.28,19.81-27.27
					c11.27,1.02,28.16,56.81,28.16,56.81L1574.43,442.21z"/>
			</g>
		</g>
		<g>
			
				<ellipse transform="matrix(0.2298 -0.9732 0.9732 0.2298 -4.3177 1230.6819)" class="st13" cx="775.36" cy="618.07" rx="102.09" ry="102.09"/>
		</g>
		<g>
			<path class="st13" d="M1062.42,882.51c0,30.51-24.74,55.25-55.25,55.25c-30.51,0-55.25-24.74-55.25-55.25
				c0-30.51,24.74-55.25,55.25-55.25C1037.68,827.26,1062.42,852,1062.42,882.51z"/>
		</g>
		<g>
			
				<ellipse transform="matrix(0.9988 -0.0498 0.0498 0.9988 -43.336 75.3751)" class="st13" cx="1490.55" cy="907.12" rx="107.81" ry="107.81"/>
		</g>
		<g>
			<path class="st13" d="M2209.1,901.62c0,38.81-31.47,70.28-70.28,70.28s-70.28-31.47-70.28-70.28c0-38.82,31.47-70.28,70.28-70.28
				S2209.1,862.81,2209.1,901.62z"/>
		</g>
		<path class="st13" d="M1635.51,727.5c0,16.24,13.17,29.41,29.41,29.41c16.24,0,29.41-13.17,29.41-29.41
			c0-16.25-13.17-29.41-29.41-29.41C1648.68,698.08,1635.51,711.25,1635.51,727.5z"/>
		<path class="st13" d="M1788.28,415.35c0,9.67,7.84,17.5,17.5,17.5c9.67,0,17.5-7.84,17.5-17.5c0-9.67-7.84-17.5-17.5-17.5
			C1796.12,397.85,1788.28,405.69,1788.28,415.35z"/>
		
			<ellipse transform="matrix(0.3827 -0.9239 0.9239 0.3827 395.6258 2334.8955)" class="st13" cx="1945.02" cy="871.4" rx="25.24" ry="25.24"/>
		<path class="st13" d="M1161.24,377.6c0,13.76,11.16,24.92,24.92,24.92c13.76,0,24.92-11.16,24.92-24.92
			c0-13.76-11.16-24.92-24.92-24.92C1172.4,352.68,1161.24,363.84,1161.24,377.6z"/>
		
			<ellipse transform="matrix(0.7071 -0.7071 0.7071 0.7071 -56.798 618.0759)" class="st13" cx="717.68" cy="377.6" rx="24.12" ry="24.12"/>
		<path class="st13" d="M972.04,725.57c0,16.24,13.17,29.41,29.41,29.41c16.25,0,29.41-13.17,29.41-29.41
			c0-16.25-13.17-29.41-29.41-29.41C985.2,696.16,972.04,709.33,972.04,725.57z"/>
		<path class="st13" d="M1186.16,981.11c0,16.24,13.17,29.41,29.41,29.41c16.24,0,29.41-13.17,29.41-29.41
			c0-16.25-13.17-29.41-29.41-29.41C1199.33,951.7,1186.16,964.87,1186.16,981.11z"/>
		<path class="st13" d="M1318.26,696.16c0,10.54,8.54,19.09,19.09,19.09s19.09-8.54,19.09-19.09c0-10.54-8.55-19.09-19.09-19.09
			S1318.26,685.62,1318.26,696.16z"/>
		<path class="st13" d="M775.36,887.4c0,10.89,8.83,19.72,19.72,19.72c10.89,0,19.72-8.83,19.72-19.72
			c0-10.89-8.83-19.72-19.72-19.72C784.19,867.68,775.36,876.51,775.36,887.4z"/>
		
			<ellipse transform="matrix(0.9975 -0.0709 0.0709 0.9975 -61.3409 32.0107)" class="st13" cx="420.32" cy="880.23" rx="29.41" ry="29.41"/>
		<path class="st13" d="M525.65,567.35c0,16.24,13.17,29.41,29.41,29.41c16.24,0,29.41-13.17,29.41-29.41
			c0-16.24-13.17-29.41-29.41-29.41C538.82,537.94,525.65,551.1,525.65,567.35z"/>
		<path class="st13" d="M2240.37,827.26c0,16.24,13.17,29.41,29.41,29.41s29.41-13.17,29.41-29.41c0-16.24-13.17-29.41-29.41-29.41
			S2240.37,811.02,2240.37,827.26z"/>
		<g>
			<defs>
				
					<ellipse id="SVGID_3_" transform="matrix(0.1602 -0.9871 0.9871 0.1602 408.8443 1654.584)" cx="1176.79" cy="587.02" rx="89.91" ry="89.91"/>
			</defs>
			<clipPath id="SVGID_4_">
				<use xlink:href="#SVGID_3_"  style="overflow:visible;"/>
			</clipPath>
			<g class="st17">
				<path class="st9" d="M1145.65,531.45c24.63-13.08,53.33-1.36,55.48,33c2.15,34.36-22.1,46.47-45.38,44.2
					S1109.57,545.87,1145.65,531.45z"/>
				<path class="st9" d="M1160.51,622.74c0,13.53,10.97,24.5,24.5,24.5c13.53,0,24.5-10.97,24.5-24.5c0-13.53-10.97-24.5-24.5-24.5
					C1171.48,598.24,1160.51,609.21,1160.51,622.74z"/>
				<path class="st18" d="M1132.43,636.81l-83.66-2.88c0,0-65.2-20.38-67.22-20.94c-2.02-0.56-12.01-26.67-14.65-24.43
					c-2.65,2.23,5.78,13.07,2.38,15.02c-3.4,1.95-35.23-8.48-35.17-5.9c0.1,4.83,19.24,7.16,18.87,9.43
					c-0.36,2.27-19.74-4.34-21.65-0.77c-1.92,3.57,18.92,4.48,19.49,6.29c0.57,1.81-19.73,1.85-18.23,5.67
					c0.82,2.08,18.05-0.48,17.58,2.1c-0.47,2.59-13.37,6.65-12.21,8.95c1.16,2.3,10.38-4.9,17.37-3.94
					c6.99,0.97,12.55-2.06,23.2,2.83c10.65,4.89,46.19,26.68,70.12,29.16c23.92,2.48,76.76,8.09,76.76,8.09L1132.43,636.81z"/>
				<path class="st19" d="M1148.36,632.98c45.81,2.14,5.53,40.5,5.53,40.5l-67.69-9.61c-2.04-13.5,1.44-29.61,1.61-33.2
					C1101.85,629.8,1137.07,632.46,1148.36,632.98z"/>
				<path class="st7" d="M1183.77,625.65c0,0,19.69-0.35,30.15,11.08c10.47,11.43-16.45,100.54-18.35,115.09
					c-1.9,14.55,9.7,53.24,9.7,53.24s-62.15,12.53-79.91,0.75c0,0-1.9-104.64,0-115.03c1.9-10.4,17.76-52.67,21.57-56.82
					C1150.74,629.81,1183.77,625.65,1183.77,625.65z"/>
				<path class="st5" d="M1174.97,590.22c0,0,0.14,0.78,0.38,2.11c1.18,6.38,5.72,27.52,8.79,33.34c3.71,7.02-12.7,29.43-28.48,26.7
					c-4.7-0.81,3.97-20.59,3.55-22.68c-0.8-4.01-1.88-9.48-2.99-15.09c-0.62-3.16-1.26-6.37-1.85-9.39
					c-1.69-8.57-3.07-15.58-3.07-15.58L1174.97,590.22z"/>
				<path class="st7" d="M1175.35,592.33c-0.25-1.33-0.38-2.11-0.38-2.11l-23.66-0.59c0,0,1.38,7.01,3.07,15.58
					c0.59,3,1.22,6.19,1.84,9.33c3.65-0.54,7.47-2.32,11.29-5.68c4.17-3.66,6.91-8.06,8.56-12.76
					C1175.77,594.61,1175.53,593.32,1175.35,592.33z"/>
				<path class="st5" d="M1159.04,536.32c0,0,11.15-1.29,18.14,7.77c6.99,9.06,14.52,37.08-2.84,52.32
					c-17.36,15.23-34.52-2.01-37.06-20.29C1134.74,557.83,1133.75,535.66,1159.04,536.32z"/>
				<path class="st5" d="M1132.14,575.85c2.07,4.04,5.55,6.27,7.77,4.99c2.22-1.28,2.34-5.59,0.27-9.63c-2.07-4.04-5.55-6.28-7.77-5
					C1130.19,567.5,1130.07,571.81,1132.14,575.85z"/>
				<path class="st9" d="M1157.79,533.33c0,0,14.9,26.65,25.56,27.88c10.66,1.23,12.06,15.39,12.06,15.39s-3.81-32.63-14.36-38.92
					C1170.5,531.39,1157.79,533.33,1157.79,533.33z"/>
				<path class="st5" d="M1180.56,567.9c-0.87,4.73,0.88,9.07,3.89,9.69c3.02,0.62,6.17-2.71,7.03-7.44
					c0.87-4.73-0.88-9.07-3.89-9.69C1184.57,559.84,1181.42,563.17,1180.56,567.9z"/>
				<path class="st19" d="M1157.36,715.97c0,0,48.1-24.64,58.7-37.78c10.6-13.13,8.28-38.29-5.39-44.33
					c-13.66-6.04-69.24,49.62-69.24,49.62L1157.36,715.97z"/>
			</g>
		</g>
		<g>
			<defs>
				<path id="SVGID_5_" d="M1307.92,400.46c0,26.79,21.72,48.51,48.51,48.51s48.51-21.72,48.51-48.51
					c0-26.79-21.72-48.51-48.51-48.51S1307.92,373.67,1307.92,400.46z"/>
			</defs>
			<clipPath id="SVGID_6_">
				<use xlink:href="#SVGID_5_"  style="overflow:visible;"/>
			</clipPath>
			<g class="st20">
				<path class="st9" d="M1373.24,370.48c-13.29-7.06-28.77-0.74-29.93,17.8c-1.16,18.54,11.92,25.07,24.49,23.85
					C1380.35,410.9,1392.7,378.26,1373.24,370.48z"/>
				<path class="st9" d="M1351.31,400.8c0,3.49-2.83,6.32-6.32,6.32s-6.32-2.83-6.32-6.32c0-3.49,2.83-6.32,6.32-6.32
					S1351.31,397.31,1351.31,400.8z"/>
				<path class="st9" d="M1357.62,406.78c0,3.49-2.83,6.32-6.31,6.32c-3.49,0-6.32-2.83-6.32-6.32c0-3.49,2.83-6.32,6.32-6.32
					C1354.79,400.46,1357.62,403.29,1357.62,406.78z"/>
				<path class="st9" d="M1365.9,411.31c0,3.49-2.83,6.32-6.32,6.32c-3.49,0-6.32-2.83-6.32-6.32s2.83-6.32,6.32-6.32
					C1363.08,405,1365.9,407.83,1365.9,411.31z"/>
				<path class="st9" d="M1348.54,390.39c0,3.49-2.83,6.32-6.32,6.32s-6.32-2.83-6.32-6.32c0-3.49,2.83-6.32,6.32-6.32
					S1348.54,386.9,1348.54,390.39z"/>
				<path class="st9" d="M1350.71,379.54c0,3.49-2.83,6.31-6.32,6.31c-3.49,0-6.32-2.83-6.32-6.31c0-3.49,2.83-6.32,6.32-6.32
					C1347.88,373.23,1350.71,376.06,1350.71,379.54z"/>
				<path class="st9" d="M1358.01,372.64c0,3.49-2.83,6.32-6.32,6.32c-3.49,0-6.32-2.83-6.32-6.32c0-3.49,2.83-6.32,6.32-6.32
					C1355.18,366.32,1358.01,369.15,1358.01,372.64z"/>
				<path class="st9" d="M1367.67,369.77c0,3.49-2.83,6.32-6.32,6.32s-6.32-2.83-6.32-6.32c0-3.49,2.83-6.31,6.32-6.31
					S1367.67,366.28,1367.67,369.77z"/>
				<path class="st9" d="M1377.73,370.56c0,3.49-2.83,6.32-6.32,6.32c-3.49,0-6.32-2.83-6.32-6.32c0-3.49,2.83-6.31,6.32-6.31
					C1374.91,364.24,1377.73,367.07,1377.73,370.56z"/>
				<path class="st9" d="M1385.23,378.45c0,3.49-2.83,6.32-6.32,6.32c-3.49,0-6.32-2.83-6.32-6.32c0-3.49,2.83-6.32,6.32-6.32
					C1382.4,372.13,1385.23,374.96,1385.23,378.45z"/>
				<path class="st9" d="M1385.03,398.57c0,3.49-2.83,6.32-6.32,6.32s-6.32-2.83-6.32-6.32c0-3.49,2.83-6.32,6.32-6.32
					S1385.03,395.08,1385.03,398.57z"/>
				<path class="st9" d="M1378.72,408.04c0,3.49-2.83,6.32-6.32,6.32s-6.32-2.83-6.32-6.32c0-3.49,2.83-6.32,6.32-6.32
					S1378.72,404.55,1378.72,408.04z"/>
				<path class="st9" d="M1387.6,387.92c0,3.49-2.83,6.32-6.32,6.32c-3.49,0-6.32-2.83-6.32-6.32c0-3.49,2.83-6.32,6.32-6.32
					C1384.77,381.6,1387.6,384.43,1387.6,387.92z"/>
				<path class="st9" d="M1370.04,410.4c0,3.49-2.83,6.32-6.32,6.32c-3.49,0-6.32-2.83-6.32-6.32c0-3.49,2.83-6.32,6.32-6.32
					C1367.21,404.09,1370.04,406.92,1370.04,410.4z"/>
				<path class="st18" d="M1380.37,427.32l45.14-1.55c0,0,35.18-10.99,36.27-11.3c1.09-0.3,6.48-14.39,7.91-13.18
					c1.43,1.2-3.12,7.05-1.28,8.11c1.84,1.05,19.01-4.58,18.98-3.18c-0.06,2.61-10.38,3.86-10.18,5.09
					c0.19,1.22,10.65-2.34,11.68-0.42c1.03,1.92-10.21,2.42-10.51,3.39c-0.31,0.98,10.65,1,9.83,3.06
					c-0.44,1.12-9.74-0.26-9.49,1.13c0.25,1.4,7.22,3.59,6.59,4.83c-0.63,1.24-5.6-2.65-9.37-2.12c-3.77,0.52-6.77-1.11-12.52,1.53
					c-5.75,2.64-24.92,14.4-37.83,15.73c-12.91,1.34-41.42,4.37-41.42,4.37L1380.37,427.32z"/>
				<path class="st19" d="M1371.78,425.26c-24.72,1.15-2.99,21.85-2.99,21.85l36.52-5.18c1.1-7.28-0.78-15.98-0.87-17.92
					C1396.87,423.54,1377.86,424.98,1371.78,425.26z"/>
				<path class="st7" d="M1352.67,421.3c0,0-10.62-0.19-16.27,5.98c-5.65,6.17,8.88,54.25,9.9,62.1c1.03,7.85-5.23,28.73-5.23,28.73
					s33.53,6.76,43.11,0.41c0,0,1.03-56.46,0-62.07c-1.03-5.61-9.58-28.42-11.64-30.66C1370.49,423.55,1352.67,421.3,1352.67,421.3z
					"/>
				<path class="st21" d="M1357.42,402.19c0,0-0.07,0.42-0.21,1.14c-0.64,3.44-3.09,14.85-4.74,17.99c-2,3.79,6.85,15.88,15.37,14.4
					c2.54-0.44-2.14-11.11-1.92-12.24c0.43-2.16,1.01-5.11,1.61-8.14c0.34-1.71,0.68-3.44,1-5.06c0.91-4.62,1.65-8.4,1.65-8.4
					L1357.42,402.19z"/>
				<path class="st22" d="M1357.21,403.33c0.13-0.72,0.21-1.14,0.21-1.14l12.76-0.32c0,0-0.74,3.78-1.65,8.4
					c-0.32,1.62-0.66,3.34-0.99,5.04c-1.97-0.29-4.03-1.25-6.09-3.06c-2.25-1.97-3.73-4.35-4.62-6.88
					C1356.98,404.56,1357.11,403.86,1357.21,403.33z"/>
				<path class="st21" d="M1366.01,373.11c0,0-6.02-0.7-9.79,4.19c-3.77,4.89-7.84,20.01,1.53,28.23c9.37,8.22,18.63-1.08,20-10.95
					C1379.13,384.71,1379.66,372.75,1366.01,373.11z"/>
				<path class="st21" d="M1380.52,394.43c-1.12,2.18-3,3.39-4.19,2.69c-1.2-0.69-1.26-3.02-0.14-5.19c1.12-2.18,3-3.39,4.19-2.69
					C1381.58,389.93,1381.64,392.25,1380.52,394.43z"/>
				<path class="st9" d="M1366.68,371.49c0,0-8.04,14.38-13.79,15.04c-5.75,0.66-6.5,8.3-6.5,8.3s2.06-17.6,7.75-21
					C1359.83,370.44,1366.68,371.49,1366.68,371.49z"/>
				<path class="st21" d="M1354.4,390.14c0.47,2.55-0.47,4.89-2.1,5.23c-1.63,0.33-3.33-1.46-3.79-4.02
					c-0.47-2.55,0.47-4.89,2.1-5.23C1352.24,385.79,1353.94,387.59,1354.4,390.14z"/>
				<path class="st19" d="M1366.92,470.04c0,0-25.95-13.3-31.67-20.38c-5.72-7.09-4.47-20.66,2.91-23.92
					c7.37-3.26,37.36,26.77,37.36,26.77L1366.92,470.04z"/>
			</g>
		</g>
		<g>
			<defs>
				
					<ellipse id="SVGID_7_" transform="matrix(0.9436 -0.331 0.331 0.9436 -99.1511 654.0594)" cx="1870.69" cy="618.13" rx="97.03" ry="97.03"/>
			</defs>
			<clipPath id="SVGID_8_">
				<use xlink:href="#SVGID_7_"  style="overflow:visible;"/>
			</clipPath>
			<g class="st23">
				<path class="st7" d="M1904.29,558.15c-20.71-10.95-51.8-5.23-59.87,35.61c-4.81,24.33-16.78,49.89-16.78,49.89
					c31.36,14,65.09,14.59,92.14,9.87C1919.78,653.53,1943.23,573.71,1904.29,558.15z"/>
				<path class="st18" d="M1918.56,671.86l90.29-3.11c0,0,70.37-21.99,72.54-22.6c2.18-0.61,12.96-28.78,15.82-26.37
					c2.86,2.41-6.24,14.1-2.56,16.21c3.67,2.11,38.01-9.15,37.96-6.37c-0.11,5.22-20.76,7.73-20.37,10.18s21.3-4.68,23.37-0.83
					c2.07,3.85-20.42,4.84-21.03,6.79c-0.61,1.95,21.29,1.99,19.67,6.12c-0.88,2.24-19.48-0.52-18.97,2.27
					c0.51,2.79,14.43,7.18,13.18,9.66c-1.25,2.48-11.21-5.29-18.75-4.25c-7.54,1.04-13.54-2.22-25.04,3.06
					c-11.5,5.28-49.85,28.79-75.67,31.46c-25.82,2.67-82.84,8.74-82.84,8.74L1918.56,671.86z"/>
				<path class="st24" d="M1901.37,667.73c-49.44,2.3-5.97,43.71-5.97,43.71l73.06-10.37c2.2-14.57-1.55-31.95-1.74-35.83
					C1951.56,664.3,1913.55,667.16,1901.37,667.73z"/>
				<path class="st3" d="M1863.15,659.82c0,0-21.25-0.38-32.54,11.96c-11.29,12.34,17.75,108.5,19.81,124.21
					s-10.47,57.46-10.47,57.46s67.07,13.53,86.24,0.81c0,0,2.05-112.93,0-124.14c-2.05-11.22-19.17-56.84-23.28-61.32
					C1898.8,664.3,1863.15,659.82,1863.15,659.82z"/>
				<path class="st5" d="M1872.66,621.58c0,0-0.15,0.84-0.41,2.28c-1.27,6.88-6.17,29.7-9.49,35.98c-4,7.58,13.7,31.76,30.74,28.81
					c5.07-0.88-4.29-22.22-3.84-24.48c0.86-4.33,2.03-10.23,3.22-16.28c0.67-3.41,1.36-6.88,2-10.13
					c1.82-9.25,3.31-16.81,3.31-16.81L1872.66,621.58z"/>
				<path class="st25" d="M1872.24,623.86c0.27-1.43,0.41-2.28,0.41-2.28l25.53-0.64c0,0-1.49,7.56-3.31,16.81
					c-0.64,3.24-1.32,6.68-1.99,10.07c-3.94-0.58-8.06-2.5-12.19-6.13c-4.5-3.95-7.45-8.7-9.23-13.77
					C1871.78,626.32,1872.05,624.92,1872.24,623.86z"/>
				<path class="st5" d="M1889.84,563.42c0,0-12.03-1.39-19.58,8.38c-7.54,9.78-15.67,40.02,3.06,56.46
					c18.74,16.44,37.25-2.17,40-21.9C1916.07,586.63,1917.14,562.7,1889.84,563.42z"/>
				<path class="st5" d="M1918.87,606.07c-2.24,4.36-5.99,6.77-8.39,5.39c-2.39-1.38-2.52-6.03-0.29-10.39
					c2.24-4.36,5.99-6.77,8.39-5.39C1920.98,597.06,1921.11,601.71,1918.87,606.07z"/>
				<path class="st7" d="M1891.19,560.18c0,0-16.08,28.76-27.58,30.08c-11.5,1.33-13.01,16.61-13.01,16.61s4.11-35.21,15.5-42
					C1877.48,558.09,1891.19,560.18,1891.19,560.18z"/>
				<path class="st5" d="M1866.62,597.49c0.94,5.11-0.95,9.79-4.2,10.46c-3.26,0.67-6.65-2.93-7.59-8.03
					c-0.94-5.11,0.95-9.79,4.2-10.46C1862.29,588.79,1865.69,592.39,1866.62,597.49z"/>
				<path class="st24" d="M1891.66,757.29c0,0-51.91-26.6-63.35-40.77c-11.44-14.17-8.93-41.32,5.81-47.84
					c14.75-6.52,74.73,53.55,74.73,53.55L1891.66,757.29z"/>
			</g>
		</g>
		<g>
			<defs>
				<circle id="SVGID_9_" cx="2138.52" cy="899.67" r="67.28"/>
			</defs>
			<clipPath id="SVGID_10_">
				<use xlink:href="#SVGID_9_"  style="overflow:visible;"/>
			</clipPath>
			<g class="st26">
				<path class="st6" d="M2115.22,858.08c18.43-9.79,39.91-1.02,41.51,24.69c1.61,25.71-16.54,34.77-33.96,33.07
					C2105.36,914.15,2088.23,868.88,2115.22,858.08z"/>
				<path class="st6" d="M2126.34,926.4c0,10.12,8.21,18.33,18.33,18.33s18.33-8.21,18.33-18.33c0-10.13-8.21-18.33-18.33-18.33
					S2126.34,916.27,2126.34,926.4z"/>
				<path class="st18" d="M2105.33,936.92l-62.6-2.15c0,0-48.79-15.25-50.3-15.67c-1.51-0.42-8.99-19.95-10.97-18.28
					c-1.98,1.67,4.32,9.78,1.78,11.24c-2.54,1.46-26.36-6.35-26.32-4.41c0.08,3.62,14.39,5.36,14.12,7.06
					c-0.27,1.7-14.77-3.25-16.2-0.58c-1.43,2.67,14.16,3.35,14.58,4.71c0.42,1.35-14.76,1.38-13.64,4.24
					c0.61,1.55,13.51-0.36,13.16,1.57c-0.35,1.93-10.01,4.98-9.14,6.7c0.87,1.72,7.77-3.67,13-2.95c5.23,0.72,9.39-1.54,17.36,2.12
					c7.97,3.66,34.57,19.96,52.47,21.82c17.9,1.85,57.44,6.06,57.44,6.06L2105.33,936.92z"/>
				<path class="st11" d="M2117.25,934.06c34.28,1.6,4.14,30.31,4.14,30.31l-50.65-7.19c-1.52-10.1,1.08-22.16,1.2-24.84
					C2082.45,931.68,2108.81,933.67,2117.25,934.06z"/>
				<path class="st12" d="M2143.75,928.57c0,0,14.73-0.26,22.56,8.29c7.83,8.56-12.31,75.23-13.73,86.12
					c-1.42,10.89,7.26,39.84,7.26,39.84s-46.5,9.38-59.79,0.56c0,0-1.42-78.3,0-86.08c1.42-7.78,13.29-39.41,16.14-42.52
					C2119.03,931.68,2143.75,928.57,2143.75,928.57z"/>
				<path class="st5" d="M2137.16,902.06c0,0,0.1,0.59,0.29,1.58c0.88,4.77,4.28,20.59,6.58,24.94c2.78,5.26-9.5,22.02-21.31,19.98
					c-3.52-0.61,2.97-15.41,2.66-16.97c-0.6-3-1.41-7.09-2.23-11.29c-0.47-2.37-0.94-4.77-1.39-7.02
					c-1.26-6.41-2.29-11.65-2.29-11.65L2137.16,902.06z"/>
				<path class="st7" d="M2137.45,903.64c-0.18-0.99-0.29-1.58-0.29-1.58l-17.7-0.44c0,0,1.03,5.24,2.29,11.65
					c0.44,2.24,0.91,4.63,1.38,6.98c2.73-0.4,5.59-1.73,8.45-4.25c3.12-2.74,5.17-6.03,6.4-9.54
					C2137.77,905.35,2137.58,904.38,2137.45,903.64z"/>
				<path class="st5" d="M2125.25,861.73c0,0,8.34-0.97,13.57,5.81c5.23,6.78,10.87,27.75-2.13,39.15
					c-12.99,11.4-25.83-1.5-27.73-15.19C2107.06,877.83,2106.32,861.24,2125.25,861.73z"/>
				<path class="st5" d="M2105.12,891.31c1.55,3.02,4.15,4.69,5.81,3.74c1.66-0.96,1.75-4.18,0.2-7.2c-1.55-3.02-4.16-4.7-5.82-3.74
					C2103.65,885.06,2103.57,888.28,2105.12,891.31z"/>
				<path class="st6" d="M2124.31,859.49c0,0,11.15,19.94,19.12,20.86c7.97,0.92,9.02,11.52,9.02,11.52s-2.85-24.41-10.75-29.12
					C2133.81,858.04,2124.31,859.49,2124.31,859.49z"/>
				<path class="st5" d="M2141.34,885.36c-0.65,3.54,0.66,6.79,2.91,7.25c2.26,0.46,4.61-2.03,5.26-5.57
					c0.65-3.54-0.66-6.79-2.91-7.25C2144.35,879.33,2141.99,881.82,2141.34,885.36z"/>
				<path class="st11" d="M2123.98,996.16c0,0,35.99-18.44,43.92-28.27c7.93-9.83,6.19-28.65-4.03-33.17
					c-10.22-4.52-51.81,37.13-51.81,37.13L2123.98,996.16z"/>
			</g>
		</g>
		<g>
			<defs>
				
					<ellipse id="SVGID_11_" transform="matrix(0.1707 -0.9853 0.9853 0.1707 621.7438 1985.8079)" cx="1490.54" cy="623.56" rx="56.21" ry="56.21"/>
			</defs>
			<clipPath id="SVGID_12_">
				<use xlink:href="#SVGID_11_"  style="overflow:visible;"/>
			</clipPath>
			<g class="st27">
				<path class="st7" d="M1391.89,660.06c0,0,19.84-5.3,20.08-3.7c5.12,35.02,7.33,47.67,8.05,48.02
					c2.45,1.18,33.76-28.99,39.43-31.13c2.71-1.02,5.69-0.94,8.55-0.93c6.81,0.02,8.15,0.01,8.15,0.01
					c0.19,0.01,0.25,0.01,0.25,0.01l0.13,6.4c-7.48,7.1-14.84,144.17-16.32,144.14c-1.65-0.03-32.76-0.2-31.28-2.8
					c0,0,7.52-42.21,13.44-70.04c1.99-9.34,7.53-28.87,7.53-28.87c-7.6,4.07-37.32,19.67-42.14,17.84
					C1392.77,733.3,1391.89,660.06,1391.89,660.06z"/>
				<path class="st28" d="M1450.67,743.42c3.41-16.79,12.14-44.34,14.7-50.59c5.87-14.35,10.81-20.43,10.81-20.43l23.23,0.69
					c0,0,0.54,0.15,0.7,0.17c1.9,0.3,1.96,67.96,0.93,93.25c-1.02,25.3-6.64,58.22-6.64,58.22l-6.63-0.63
					c-0.11,3.41-0.19,5.66-0.19,5.66c-33.61,5.93-52.38-10.64-52.38-10.64S1446.25,765.19,1450.67,743.42z"/>
				<path class="st7" d="M1499.41,673.08c0,0,22.97-1.67,28.84-4.52c3.56-1.72,32.49-26.31,32.49-26.31l-2-63.76l20.75-2.13
					c0,0,12.63,70.2,9.1,78.01c-3.65,8.07-46.05,42-54.33,56.46c-4.77,8.33-0.24,121.43-1.79,122.47
					c-11.04,6.12-57.45,11.54-56.73,7.98C1495.66,743.04,1499.41,673.08,1499.41,673.08z"/>
				<path class="st5" d="M1498.21,652.62l1.2,20.47c0,0-14.34,26.27-22.14,22.87c-6.55-2.86-1.32-22.69-1.32-22.69s1-4.54,2.42-9.77
					c0.99-3.65,1.79-7.6,1.65-10.48C1479.67,646.01,1498.21,652.62,1498.21,652.62z"/>
				<path class="st7" d="M1480.01,653.01c-0.35-7,18.2-0.4,18.2-0.4l0.12,2c-0.6,0.95-1.26,1.76-1.99,2.38
					c-4.83,4.14-11.92,6.13-17.75,5.62C1479.47,659.22,1480.14,655.66,1480.01,653.01z"/>
				<g>
					<path class="st29" d="M1479.05,606.36c0,0-7.35,11.74-7.67,21.46c-0.32,9.73,1.91,16.3,1.91,16.3l23.79-30L1479.05,606.36z"/>
					<path class="st10" d="M1468.78,625.91c-0.26,3.41,1.14,6.29,3.12,6.44c1.98,0.15,3.8-2.49,4.05-5.9
						c0.26-3.41-1.14-6.29-3.12-6.44C1470.86,619.86,1469.04,622.5,1468.78,625.91z"/>
					<path class="st5" d="M1505.15,618.62c0.56-0.13,1.25,28.13-6.77,35c-8.02,6.87-22.26,7.82-26.6,1.23
						c-4.8-7.29-1.2-37.19,10.82-43.83C1494.62,604.37,1505.15,618.62,1505.15,618.62z"/>
					<path class="st29" d="M1506.77,601.04c6.4,5.32,9.53,9.25,14.02,18.88c5.52,11.85-4.48,24.54-13.01,29.7
						c-8.53,5.16-9.09,11.15-9.09,11.15l-0.45-3.67c-0.21-1.34-0.19-2.43,0.02-3.39c0.24-1.12,0.73-2.05,1.15-3.02
						c0.7-1.59,2.92-7.05,3.81-8.5c2.34-3.82,2.8-4.65,1.5-8.18c-1-2.72-0.08-8.81-1.64-13.3l-11.72-2.21c0,0-7.34-1.56-11.13-5.71
						C1469.35,600.87,1489.89,586.72,1506.77,601.04z"/>
					<path class="st5" d="M1502.03,637.18c-1.35,3.14-0.97,6.32,0.85,7.11c1.82,0.79,4.4-1.12,5.75-4.26
						c1.35-3.14,0.97-6.32-0.85-7.11C1505.96,632.13,1503.38,634.04,1502.03,637.18z"/>
				</g>
			</g>
		</g>
		<g>
			<defs>
				
					<ellipse id="SVGID_13_" transform="matrix(0.9665 -0.2567 0.2567 0.9665 -163.9447 130.6765)" cx="418.63" cy="693.38" rx="84.74" ry="84.74"/>
			</defs>
			<clipPath id="SVGID_14_">
				<use xlink:href="#SVGID_13_"  style="overflow:visible;"/>
			</clipPath>
			<g class="st30">
				<path class="st6" d="M269.9,748.42c0,0,29.91-8,30.27-5.58c7.71,52.79,11.06,71.87,12.14,72.39c3.7,1.78,50.9-43.71,59.45-46.93
					c4.09-1.54,8.58-1.42,12.89-1.41c10.27,0.03,12.29,0.02,12.29,0.02c0.29,0.01,0.38,0.02,0.38,0.02l0.2,9.65
					c-11.28,10.7-22.37,217.36-24.6,217.31c-2.49-0.05-49.39-0.3-47.16-4.21c0,0,11.34-63.64,20.26-105.6
					c2.99-14.08,11.36-43.53,11.36-43.53c-11.47,6.13-56.26,29.65-63.53,26.89C271.22,858.84,269.9,748.42,269.9,748.42z"/>
				<path class="st6" d="M358.51,874.09c5.14-25.32,18.31-66.86,22.16-76.27c8.85-21.63,16.3-30.8,16.3-30.8l35.03,1.04
					c0,0,0.81,0.22,1.06,0.26c2.86,0.45,2.95,102.46,1.41,140.59c-1.54,38.14-10.01,87.77-10.01,87.77l-9.99-0.95
					c-0.16,5.14-0.28,8.53-0.28,8.53c-50.68,8.94-78.97-16.05-78.97-16.05S351.84,906.91,358.51,874.09z"/>
				<path class="st6" d="M431.99,768.05c0,0,34.64-2.53,43.48-6.81c5.36-2.6,48.98-39.67,48.98-39.67l-3.02-96.12l31.28-3.21
					c0,0,19.04,105.83,13.71,117.61c-5.5,12.16-69.42,63.32-81.91,85.12c-7.19,12.56-0.37,183.06-2.7,184.64
					c-16.65,9.23-86.62,17.39-85.53,12.03C426.34,873.52,431.99,768.05,431.99,768.05z"/>
				<path class="st21" d="M430.19,737.19l1.8,30.86c0,0-21.62,39.61-33.39,34.48c-9.87-4.31-1.99-34.21-1.99-34.21
					s1.51-6.85,3.65-14.73c1.49-5.51,2.7-11.46,2.48-15.8C402.22,727.24,430.19,737.19,430.19,737.19z"/>
				<path class="st31" d="M402.74,737.79c-0.52-10.55,27.44-0.6,27.44-0.6l0.18,3.02c-0.9,1.43-1.89,2.65-3,3.59
					c-7.28,6.24-17.98,9.24-26.76,8.47C401.94,747.15,402.94,741.78,402.74,737.79z"/>
				<g>
					<path class="st29" d="M401.29,667.46c0,0-11.08,17.7-11.56,32.36c-0.48,14.66,2.88,24.57,2.88,24.57l35.87-45.23L401.29,667.46
						z"/>
					<path class="st31" d="M385.82,696.92c-0.39,5.14,1.72,9.49,4.71,9.71c2.99,0.23,5.72-3.76,6.11-8.9
						c0.39-5.14-1.72-9.49-4.71-9.71C388.94,687.8,386.21,691.79,385.82,696.92z"/>
					<path class="st21" d="M440.65,685.93c0.84-0.2,1.88,42.41-10.21,52.76c-12.09,10.35-33.56,11.8-40.1,1.86
						c-7.24-10.99-1.81-56.06,16.31-66.08C424.77,664.46,440.65,685.93,440.65,685.93z"/>
					<path class="st29" d="M443.09,659.43c9.65,8.02,14.37,13.94,21.13,28.47c8.32,17.86-6.75,37-19.61,44.78
						c-12.85,7.78-13.7,16.81-13.7,16.81l-0.68-5.53c-0.31-2.02-0.28-3.67,0.03-5.1c0.37-1.69,1.1-3.09,1.74-4.55
						c1.05-2.4,4.4-10.63,5.74-12.82c3.52-5.76,4.21-7,2.26-12.34c-1.5-4.11-0.13-13.28-2.46-20.05l-17.67-3.33
						c0,0-11.06-2.35-16.78-8.61C386.66,659.18,417.64,637.85,443.09,659.43z"/>
					<path class="st21" d="M435.94,713.91c-2.04,4.73-1.47,9.53,1.29,10.72c2.75,1.19,6.63-1.69,8.68-6.42
						c2.04-4.73,1.47-9.53-1.29-10.72C441.86,706.31,437.98,709.18,435.94,713.91z"/>
				</g>
			</g>
		</g>
		<g>
			<defs>
				<path id="SVGID_15_" d="M837.6,353.78c0,38.63,31.32,69.95,69.95,69.95c38.63,0,69.95-31.32,69.95-69.95
					c0-38.63-31.32-69.95-69.95-69.95C868.91,283.83,837.6,315.15,837.6,353.78z"/>
			</defs>
			<clipPath id="SVGID_16_">
				<use xlink:href="#SVGID_15_"  style="overflow:visible;"/>
			</clipPath>
			<g class="st32">
				<path class="st9" d="M1030.31,399.21c0,0-24.69-6.6-24.98-4.61c-6.37,43.58-9.13,59.32-10.02,59.75
					c-3.05,1.47-42.02-36.08-49.07-38.74c-3.37-1.27-7.08-1.17-10.64-1.16c-8.47,0.03-10.15,0.02-10.15,0.02
					c-0.24,0.01-0.31,0.01-0.31,0.01l-0.16,7.96c9.31,8.83,18.46,179.41,20.3,179.37c2.06-0.04,40.77-0.25,38.93-3.48
					c0,0-9.36-52.53-16.72-87.16c-2.47-11.63-9.38-35.93-9.38-35.93c9.46,5.06,46.44,24.48,52.44,22.2
					C1029.22,490.35,1030.31,399.21,1030.31,399.21z"/>
				<path class="st28" d="M957.17,502.94c-4.25-20.9-15.11-55.18-18.29-62.96c-7.3-17.85-13.45-25.42-13.45-25.42l-28.91,0.85
					c0,0-0.67,0.19-0.87,0.22c-2.36,0.37-2.43,84.57-1.16,116.05c1.27,31.48,8.26,72.45,8.26,72.45l8.25-0.78
					c0.14,4.25,0.23,7.04,0.23,7.04c41.83,7.38,65.18-13.25,65.18-13.25S962.67,530.03,957.17,502.94z"/>
				<path class="st9" d="M896.51,415.41c0,0-28.59-2.08-35.89-5.62c-4.42-2.14-40.43-32.75-40.43-32.75l2.49-79.34l-25.82-2.65
					c0,0-15.71,87.36-11.32,97.08c4.54,10.04,57.3,52.27,67.61,70.26c5.93,10.37,0.3,151.11,2.23,152.41
					c13.74,7.62,71.5,14.36,70.6,9.93C901.18,502.47,896.51,415.41,896.51,415.41z"/>
				<path class="st5" d="M898,389.94l-1.49,25.47c0,0,17.84,32.69,27.56,28.46c8.15-3.55,1.65-28.24,1.65-28.24
					s-1.25-5.65-3.01-12.16c-1.23-4.55-2.23-9.46-2.05-13.04C921.09,381.73,898,389.94,898,389.94z"/>
				<path class="st7" d="M920.65,390.44c0.43-8.71-22.65-0.49-22.65-0.49l-0.15,2.49c0.74,1.18,1.56,2.19,2.48,2.97
					c6.01,5.15,14.84,7.63,22.09,6.99C921.32,398.16,920.49,393.73,920.65,390.44z"/>
				<g>
					<path class="st7" d="M921.85,332.39c0,0,9.15,14.61,9.54,26.71c0.39,12.1-2.38,20.28-2.38,20.28l-29.6-37.33L921.85,332.39z"/>
					<path class="st10" d="M934.63,356.71c0.32,4.24-1.42,7.83-3.89,8.02c-2.47,0.19-4.72-3.1-5.04-7.34
						c-0.32-4.24,1.42-7.83,3.89-8.02C932.05,349.17,934.31,352.46,934.63,356.71z"/>
					<path class="st5" d="M889.37,347.63c-0.7-0.17-1.55,35,8.43,43.55c9.98,8.54,27.7,9.74,33.1,1.54
						c5.97-9.07,1.49-46.27-13.46-54.54C902.48,329.91,889.37,347.63,889.37,347.63z"/>
					<path class="st7" d="M887.36,325.76c-7.96,6.62-11.86,11.5-17.44,23.5c-6.87,14.75,5.57,30.54,16.18,36.96
						c10.61,6.42,11.31,13.87,11.31,13.87l0.56-4.57c0.26-1.67,0.23-3.03-0.03-4.21c-0.3-1.39-0.91-2.55-1.43-3.76
						c-0.87-1.98-3.63-8.78-4.74-10.58c-2.91-4.75-3.48-5.78-1.87-10.18c1.24-3.39,0.11-10.96,2.03-16.55l14.58-2.75
						c0,0,9.13-1.94,13.85-7.11C933.93,325.55,908.36,307.94,887.36,325.76z"/>
					<path class="st5" d="M893.25,370.73c1.68,3.91,1.21,7.87-1.06,8.85c-2.27,0.98-5.48-1.39-7.16-5.3
						c-1.68-3.91-1.21-7.87,1.06-8.85C888.36,364.45,891.57,366.82,893.25,370.73z"/>
				</g>
			</g>
		</g>
		<g>
			<defs>
				
					<ellipse id="SVGID_17_" transform="matrix(0.9239 -0.3827 0.3827 0.9239 -221.8097 539.407)" cx="1244.99" cy="827.26" rx="41.06" ry="41.06"/>
			</defs>
			<clipPath id="SVGID_18_">
				<use xlink:href="#SVGID_17_"  style="overflow:visible;"/>
			</clipPath>
			<g class="st33">
				<path class="st6" d="M1172.93,853.93c0,0,14.49-3.87,14.67-2.71c3.74,25.58,5.36,34.82,5.88,35.08
					c1.79,0.86,24.66-21.18,28.8-22.74c1.98-0.75,4.16-0.69,6.24-0.68c4.97,0.02,5.96,0.01,5.96,0.01c0.14,0.01,0.18,0.01,0.18,0.01
					l0.1,4.68c-5.47,5.18-10.84,105.31-11.92,105.29c-1.21-0.02-23.93-0.15-22.85-2.04c0,0,5.49-30.84,9.81-51.16
					c1.45-6.82,5.5-21.09,5.5-21.09c-5.56,2.97-27.26,14.37-30.78,13.03C1173.57,907.43,1172.93,853.93,1172.93,853.93z"/>
				<path class="st28" d="M1215.86,914.82c2.49-12.27,8.87-32.39,10.74-36.96c4.29-10.48,7.9-14.92,7.9-14.92l16.97,0.5
					c0,0,0.39,0.11,0.51,0.13c1.39,0.22,1.43,49.64,0.68,68.12c-0.75,18.48-4.85,42.53-4.85,42.53l-4.84-0.46
					c-0.08,2.49-0.14,4.13-0.14,4.13c-24.55,4.33-38.26-7.77-38.26-7.77S1212.63,930.72,1215.86,914.82z"/>
				<path class="st6" d="M1251.46,863.44c0,0,16.78-1.22,21.07-3.3c2.6-1.26,23.73-19.22,23.73-19.22l-1.46-46.57l15.15-1.55
					c0,0,9.22,51.28,6.64,56.99c-2.66,5.89-33.64,30.68-39.68,41.24c-3.48,6.08-0.18,88.7-1.31,89.46
					c-8.07,4.47-41.97,8.43-41.44,5.83C1248.73,914.54,1251.46,863.44,1251.46,863.44z"/>
				<path class="st5" d="M1250.59,848.49l0.87,14.95c0,0-10.47,19.19-16.18,16.71c-4.78-2.09-0.97-16.58-0.97-16.58
					s0.73-3.32,1.77-7.14c0.72-2.67,1.31-5.55,1.2-7.65C1237.04,843.67,1250.59,848.49,1250.59,848.49z"/>
				<path class="st7" d="M1237.29,848.78c-0.25-5.11,13.3-0.29,13.3-0.29l0.09,1.46c-0.43,0.69-0.92,1.28-1.45,1.74
					c-3.53,3.02-8.71,4.48-12.96,4.1C1236.9,853.31,1237.39,850.71,1237.29,848.78z"/>
				<g>
					<path class="st9" d="M1236.59,814.7c0,0-5.37,8.57-5.6,15.68c-0.23,7.1,1.4,11.9,1.4,11.9l17.38-21.92L1236.59,814.7z"/>
					<path class="st10" d="M1229.09,828.98c-0.19,2.49,0.83,4.6,2.28,4.71c1.45,0.11,2.77-1.82,2.96-4.31
						c0.19-2.49-0.83-4.6-2.28-4.71C1230.61,824.56,1229.28,826.49,1229.09,828.98z"/>
					<path class="st5" d="M1255.66,823.65c0.41-0.1,0.91,20.55-4.95,25.56c-5.86,5.02-16.26,5.72-19.43,0.9
						c-3.51-5.32-0.88-27.16,7.9-32.02S1255.66,823.65,1255.66,823.65z"/>
					<path class="st9" d="M1256.84,810.81c4.67,3.89,6.96,6.75,10.24,13.79c4.03,8.66-3.27,17.93-9.5,21.7
						c-6.23,3.77-6.64,8.14-6.64,8.14l-0.33-2.68c-0.15-0.98-0.14-1.78,0.02-2.47c0.18-0.82,0.53-1.5,0.84-2.2
						c0.51-1.17,2.13-5.15,2.78-6.21c1.71-2.79,2.04-3.39,1.1-5.98c-0.73-1.99-0.06-6.44-1.19-9.72l-8.56-1.61
						c0,0-5.36-1.14-8.13-4.17C1229.5,810.69,1244.51,800.35,1256.84,810.81z"/>
					<path class="st5" d="M1253.38,837.21c-0.99,2.29-0.71,4.62,0.62,5.19c1.33,0.58,3.21-0.82,4.2-3.11
						c0.99-2.29,0.71-4.62-0.62-5.19C1256.25,833.52,1254.37,834.92,1253.38,837.21z"/>
				</g>
			</g>
		</g>
		<g>
			<defs>
				<path id="SVGID_19_" d="M1712.03,897.78c0,27.36,22.18,49.53,49.53,49.53c27.36,0,49.53-22.18,49.53-49.53
					c0-27.36-22.18-49.53-49.53-49.53C1734.21,848.25,1712.03,870.43,1712.03,897.78z"/>
			</defs>
			<clipPath id="SVGID_20_">
				<use xlink:href="#SVGID_19_"  style="overflow:visible;"/>
			</clipPath>
			<g class="st34">
				<path class="st7" d="M1848.5,929.95c0,0-17.49-4.67-17.69-3.26c-4.51,30.86-6.46,42.01-7.1,42.32
					c-2.16,1.04-29.75-25.55-34.75-27.43c-2.39-0.9-5.02-0.83-7.53-0.82c-6,0.02-7.18,0.01-7.18,0.01
					c-0.17,0.01-0.22,0.01-0.22,0.01l-0.12,5.64c6.6,6.26,13.08,127.05,14.38,127.03c1.46-0.03,28.87-0.18,27.57-2.46
					c0,0-6.63-37.2-11.84-61.73c-1.75-8.23-6.64-25.44-6.64-25.44c6.7,3.58,32.89,17.33,37.13,15.72
					C1847.73,994.5,1848.5,929.95,1848.5,929.95z"/>
				<path class="st28" d="M1796.71,1003.41c-3.01-14.8-10.7-39.08-12.95-44.59c-5.17-12.64-9.53-18-9.53-18l-20.47,0.61
					c0,0-0.47,0.13-0.62,0.15c-1.67,0.26-1.72,59.89-0.82,82.18c0.9,22.29,5.85,51.3,5.85,51.3l5.84-0.55
					c0.1,3.01,0.16,4.99,0.16,4.99c29.62,5.22,46.16-9.38,46.16-9.38S1800.61,1022.6,1796.71,1003.41z"/>
				<path class="st7" d="M1753.75,941.43c0,0-20.25-1.48-25.41-3.98c-3.13-1.52-28.63-23.19-28.63-23.19l1.77-56.19l-18.28-1.87
					c0,0-11.13,61.86-8.02,68.75c3.21,7.11,40.58,37.02,47.88,49.76c4.2,7.34,0.22,107.01,1.58,107.93
					c9.73,5.39,50.63,10.17,50,7.03C1757.06,1003.08,1753.75,941.43,1753.75,941.43z"/>
				<path class="st5" d="M1754.81,923.39l-1.05,18.04c0,0,12.64,23.15,19.52,20.15c5.77-2.52,1.17-20,1.17-20s-0.88-4-2.13-8.61
					c-0.87-3.22-1.58-6.7-1.45-9.23C1771.16,917.58,1754.81,923.39,1754.81,923.39z"/>
				<path class="st7" d="M1770.85,923.74c0.3-6.17-16.04-0.35-16.04-0.35l-0.1,1.76c0.52,0.84,1.11,1.55,1.75,2.1
					c4.26,3.65,10.51,5.4,15.64,4.95C1771.32,929.21,1770.74,926.08,1770.85,923.74z"/>
				<g>
					<path class="st29" d="M1771.7,882.63c0,0,6.48,10.34,6.76,18.91c0.28,8.57-1.69,14.36-1.69,14.36l-20.96-26.44L1771.7,882.63z"
						/>
					<path class="st10" d="M1780.74,899.85c0.23,3-1.01,5.55-2.75,5.68c-1.75,0.13-3.34-2.2-3.57-5.2c-0.23-3,1.01-5.55,2.75-5.68
						C1778.92,894.52,1780.52,896.85,1780.74,899.85z"/>
					<path class="st5" d="M1748.69,893.43c-0.49-0.12-1.1,24.79,5.97,30.84c7.07,6.05,19.62,6.89,23.44,1.09
						c4.23-6.42,1.06-32.77-9.53-38.63C1757.98,880.88,1748.69,893.43,1748.69,893.43z"/>
					<path class="st29" d="M1747.27,877.94c-5.64,4.69-8.4,8.15-12.35,16.64c-4.86,10.44,3.95,21.63,11.46,26.18
						c7.51,4.55,8.01,9.82,8.01,9.82l0.4-3.23c0.18-1.18,0.16-2.14-0.02-2.98c-0.21-0.99-0.64-1.81-1.02-2.66
						c-0.61-1.4-2.57-6.22-3.35-7.49c-2.06-3.37-2.46-4.09-1.32-7.21c0.88-2.4,0.07-7.76,1.44-11.72l10.33-1.95
						c0,0,6.47-1.38,9.81-5.03C1780.25,877.79,1762.14,865.32,1747.27,877.94z"/>
					<path class="st5" d="M1751.45,909.79c1.19,2.77,0.86,5.57-0.75,6.27c-1.61,0.69-3.88-0.99-5.07-3.75
						c-1.19-2.77-0.86-5.57,0.75-6.27C1747.98,905.34,1750.25,907.02,1751.45,909.79z"/>
				</g>
			</g>
		</g>
		<g>
			<defs>
				
					<ellipse id="SVGID_21_" transform="matrix(0.3827 -0.9239 0.9239 0.3827 88.5428 1932.7404)" cx="1490.55" cy="900.11" rx="100.81" ry="100.81"/>
			</defs>
			<clipPath id="SVGID_22_">
				<use xlink:href="#SVGID_21_"  style="overflow:visible;"/>
			</clipPath>
			<g class="st35">
				<path class="st9" d="M1465.63,1019.89c0,0,22.71-30.34,31.01-44.7c8.29-14.36-5.65-5.01-19.89-8.79
					c-5.39-1.43-0.92-30.88-11.12-20.6c-16.73,16.85-33.49,53.36-33.49,53.36L1465.63,1019.89z"/>
				<path class="st36" d="M1468.08,943.79c14.69-4.45,42.21-6.78,42.21-6.78s17.25-2.8,22.86-1.59c8.25,1.79,23.74,2.6,25.18,38.42
					c1.03,25.63,3.95,89.04,6.88,131.85l-105.05,6.38C1464.92,1046.18,1454.17,948,1468.08,943.79z"/>
				<path class="st5" d="M1495.93,906.4l16.5,30.34c0,0-12.43,22.15-24.18,22.74c-9.86,0.5-8.31-14.09-8.31-14.09
					s-1.55-18.85-6.29-27.3S1495.93,906.4,1495.93,906.4z"/>
				<path class="st7" d="M1494.43,918.55c-3.7,3.95-9.89,9.16-16.6,12.47c-0.98-4.73-2.33-9.62-4.18-12.92
					c-2.18-3.9,2.4-6.69,7.96-8.56c7.46-1.98,14.33-3.13,14.33-3.13l3.17,5.83C1498.3,914.28,1495.66,917.23,1494.43,918.55z"/>
				<g>
					<path class="st5" d="M1487.46,855.29c0.68-0.49,16.95,37.44,9.89,51.09c-7.06,13.65-25.7,22.66-35.12,16.08
						c-10.42-7.28-21.81-49.74-9.25-65.25C1465.55,841.69,1487.46,855.29,1487.46,855.29z"/>
					<path class="st6" d="M1453.08,834.47c12.79-0.9,22.7,4.32,26.46,6.67c5.68-0.88,14,0.08,25.27,10.71
						c13.86,13.07,11.69,32.42,3.03,44.04s-5.77,21.43-5.77,21.43l-3.17-4.62c-2.36-3.51-4.03-7.46-4.73-11.63
						c-0.42-2.5-0.63-5.28-0.22-7.72c1.07-6.44-8.35-7.9-12.01-12c-2.82-3.15-5.24-11.48-9.76-16.73l-4.68-3.66
						c0,0-9.53-3.92-16.72-0.06C1443.58,864.74,1436.67,835.62,1453.08,834.47z"/>
					<path class="st5" d="M1484.4,888.21c1.26,4.83,4.54,8.16,7.33,7.43c2.79-0.73,4.03-5.23,2.77-10.06
						c-1.26-4.83-4.54-8.16-7.33-7.43C1484.38,878.88,1483.14,883.39,1484.4,888.21z"/>
				</g>
				<path class="st13" d="M1471.13,903.88l-15.41,3.44c0,0,1.66,5.77,8.48,4.46C1472.52,910.16,1471.13,903.88,1471.13,903.88z"/>
				<path class="st9" d="M1521.14,1025.21c0,0,27.58-35.05,34.32-48.82c6.74-13.76-0.46-35.55-13.83-38.13
					c-13.37-2.58-52.09,60.3-52.09,60.3L1521.14,1025.21z"/>
			</g>
		</g>
		<g>
			<defs>
				<path id="SVGID_23_" d="M466.25,407.98c0,32.8,26.59,59.39,59.39,59.39c32.8,0,59.39-26.59,59.39-59.39
					c0-32.8-26.59-59.39-59.39-59.39C492.84,348.59,466.25,375.18,466.25,407.98z"/>
			</defs>
			<clipPath id="SVGID_24_">
				<use xlink:href="#SVGID_23_"  style="overflow:visible;"/>
			</clipPath>
			<g class="st37">
				<path class="st11" d="M540.33,478.55c0,0-13.38-17.88-18.27-26.34c-4.89-8.46,3.33-2.95,11.72-5.18
					c3.18-0.84,0.54-18.19,6.55-12.14c9.85,9.93,19.73,31.44,19.73,31.44L540.33,478.55z"/>
				<path class="st12" d="M538.88,433.71c-8.66-2.62-24.87-4-24.87-4s-10.16-1.65-13.47-0.94c-4.86,1.05-13.99,1.53-14.84,22.64
					c-0.61,15.1-2.33,52.46-4.05,77.69l61.89,3.76C540.75,494.04,547.08,436.2,538.88,433.71z"/>
				<path class="st5" d="M522.47,411.69l-9.72,17.88c0,0,7.32,13.05,14.25,13.4c5.81,0.29,4.9-8.3,4.9-8.3s0.91-11.11,3.7-16.08
					C538.39,413.6,522.47,411.69,522.47,411.69z"/>
				<path class="st7" d="M523.36,418.85c2.18,2.33,5.83,5.39,9.78,7.35c0.57-2.79,1.38-5.67,2.47-7.61c1.29-2.3-1.41-3.94-4.69-5.04
					c-4.39-1.17-8.44-1.85-8.44-1.85l-1.87,3.44C521.08,416.33,522.63,418.07,523.36,418.85z"/>
				<g>
					<path class="st5" d="M527.47,381.57c-0.4-0.29-9.99,22.06-5.83,30.1c4.16,8.04,15.14,13.35,20.69,9.47
						c6.14-4.29,12.85-29.3,5.45-38.44C540.38,373.56,527.47,381.57,527.47,381.57z"/>
					<path class="st29" d="M547.72,369.3c-7.54-0.53-13.37,2.54-15.59,3.93c-3.35-0.52-8.25,0.05-14.89,6.31
						c-8.17,7.7-6.89,19.1-1.78,25.95c5.11,6.84,3.4,12.63,3.4,12.63l1.86-2.72c1.39-2.07,2.38-4.39,2.79-6.85
						c0.25-1.48,0.37-3.11,0.13-4.55c-0.63-3.8,4.92-4.66,7.08-7.07c1.66-1.86,3.08-6.77,5.75-9.86l2.76-2.16
						c0,0,5.62-2.31,9.85-0.04C553.32,387.14,557.39,369.99,547.72,369.3z"/>
					<path class="st5" d="M529.27,400.97c-0.74,2.85-2.67,4.81-4.32,4.38c-1.64-0.43-2.37-3.08-1.63-5.93
						c0.74-2.85,2.67-4.81,4.32-4.38C529.28,395.47,530.01,398.13,529.27,400.97z"/>
				</g>
				<path class="st13" d="M537.09,410.2l9.08,2.03c0,0-0.98,3.4-5,2.63C536.27,413.91,537.09,410.2,537.09,410.2z"/>
				<path class="st11" d="M507.62,481.69c0,0-16.25-20.65-20.22-28.76c-3.97-8.11,0.27-20.95,8.15-22.47
					c7.88-1.52,30.69,35.53,30.69,35.53L507.62,481.69z"/>
			</g>
		</g>
		<g>
			<defs>
				
					<ellipse id="SVGID_25_" transform="matrix(0.9975 -0.0709 0.0709 0.9975 -41.8636 56.5193)" cx="775.36" cy="618.07" rx="95.1" ry="95.1"/>
			</defs>
			<clipPath id="SVGID_26_">
				<use xlink:href="#SVGID_25_"  style="overflow:visible;"/>
			</clipPath>
			<g class="st38">
				<path class="st39" d="M832.1,656.65c1.74,0.07,6.5,1.67,13.47,14.84c8.9,16.82,21.91,67.63,21.91,67.63l-38.83,14.46l-4.99-10.6
					l-8.22-81.64C815.45,661.32,831.62,656.63,832.1,656.65z"/>
				<path class="st28" d="M780.78,649.32c11.1,0.01,38.57,3.25,51.32,7.33c0,0,9.37,80.5-8.43,141.68
					c-3.98,13.69,3.3,56.76,3.3,56.76l-115.04-1.52c0,0,13.63-104.13,8.49-120.95c-5.13-16.82-5.26-75.44-5.26-75.44
					s0.79-0.12,25.85-4.45C752.69,650.72,768.92,649.31,780.78,649.32z"/>
				<path class="st5" d="M713.9,666.14c10.76-4.04,16.02,92.88,17.47,132.78c19.05,1.83,52.25,0.01,60.52-0.61
					c3.89-0.29,12.85-3.58,16.72-4.08c3.96-0.52,7.55-0.79,9.5-0.45c0.71,0.12,20.57,8.24,22.27,10.02
					c2.11,2.21,7.8,7.78,6.84,10.19c-0.96,2.41-10.95-6.71-10.95-6.71l-4.88-2.74c6.08,5.94,17.67,13.76,16,16.61
					c-1.63,2.78-12.09-5.16-19.54-10.57c6.39,5.77,14.34,16.11,12.51,17.72c-1.64,1.45-10.68-10.52-20.33-13.96
					c-3.58-1.28-7.14,2.26-9.96,2.69c-2.07,0.31-5.26,0.98-7.29,0.41l-10.45-2.96c-3.56,0.32-3.65,2.43-7.25,3.19
					c-4.18,0.89-11.02,1.82-16.34,3.12c-30.62,7.48-40.83,10.95-50.2,10.95C690.13,831.71,688.48,675.68,713.9,666.14z"/>
				<path class="st39" d="M693.49,757.13c-2.02-40.86-1.72-91.23,21.19-99.82c9.04-3.39,24.97,17,22.11,100.65
					C724.55,758.97,706.6,759.78,693.49,757.13z"/>
				<g>
					<path class="st40" d="M806.59,551c-3.27-1.1-6.5-2.35-9.61-3.85c-3.52-1.7-8.08-3.68-10.96-4.13
						c-6.06-0.93-16.48-0.31-22.23,5.93c-7.17,7.77-19.9,1.4-17.33,42.11c2.9,46.07,28.52,41.02,29.14,40.24
						c0.62-0.78,22.85-29.48,22.85-29.48s7.77,17,7.77,16.38C806.23,617.59,845.91,564.24,806.59,551z"/>
					<path class="st5" d="M787.14,634.7l2.21,16.46c0,0,4.95,23.72-1.42,28.29c-6.37,4.57-27.1-28.97-27.1-28.97l2.19-41.72
						L787.14,634.7z"/>
					<path class="st7" d="M762.31,622.29c5.26,14.23,17.8,22.98,26.71,26.37l-1.88-13.96l-24.12-25.93L762.31,622.29z"/>
					<path class="st5" d="M785.83,563.37c13.51-2.18,25.62,8.68,25.28,22.2c-0.15,5.88-0.63,13.21-1.85,21.12
						c-2.94,19-15.9,35.74-24.48,34.25c-8.57-1.49-30.15-17.89-26.35-44.93C760.79,579.3,771.66,565.66,785.83,563.37z"/>
					<path class="st5" d="M764.39,599.23c-0.72,4.18-4.07,7.09-7.48,6.49s-5.58-4.46-4.86-8.64c0.72-4.18,4.07-7.09,7.48-6.49
						C762.94,591.18,765.11,595.05,764.39,599.23z"/>
					<path class="st40" d="M759.53,590.59c0,0,10.37,2.58,14.21-4.09c3.85-6.67,17.6-21.05,35.09-15.09
						c17.49,5.97-15.39-14.5-16.79-14.5c-1.4,0-18.19-0.12-18.19-0.12s-12.94,10.64-13.41,11.81c-0.47,1.17-4.2,13.92-4.2,13.92
						L759.53,590.59z"/>
				</g>
				<path class="st13" d="M778.5,618.41l18.86,3.61c0,0-1.8,7.1-10.14,5.76C777.05,626.13,778.5,618.41,778.5,618.41z"/>
			</g>
		</g>
		<g>
			<defs>
				
					<ellipse id="SVGID_27_" transform="matrix(0.7071 -0.7071 0.7071 0.7071 -328.7569 968.7439)" cx="1005" cy="881.22" rx="49.43" ry="49.43"/>
			</defs>
			<clipPath id="SVGID_28_">
				<use xlink:href="#SVGID_27_"  style="overflow:visible;"/>
			</clipPath>
			<g class="st41">
				<path class="st42" d="M1034.49,901.27c0.9,0.04,3.38,0.87,7,7.71c4.63,8.74,11.39,35.15,11.39,35.15l-20.18,7.52l-2.59-5.51
					l-4.27-42.43C1025.84,903.7,1034.24,901.26,1034.49,901.27z"/>
				<path class="st6" d="M1007.82,897.46c5.77,0.01,20.05,1.69,26.67,3.81c0,0,4.87,41.84-4.38,73.64
					c-2.07,7.12,1.71,29.5,1.71,29.5l-59.79-0.79c0,0,7.08-54.12,4.42-62.86c-2.67-8.74-2.73-39.21-2.73-39.21s0.41-0.06,13.43-2.32
					C993.22,898.19,1001.65,897.45,1007.82,897.46z"/>
				<path class="st5" d="M973.06,906.2c5.59-2.1,8.33,48.28,9.08,69.01c9.9,0.95,27.16,0.01,31.45-0.32
					c2.02-0.15,6.68-1.86,8.69-2.12c2.06-0.27,3.93-0.41,4.94-0.23c0.37,0.06,10.69,4.28,11.57,5.21c1.09,1.15,4.05,4.04,3.55,5.3
					c-0.5,1.25-5.69-3.49-5.69-3.49l-2.54-1.42c3.16,3.09,9.19,7.15,8.32,8.63c-0.85,1.44-6.28-2.68-10.16-5.49
					c3.32,3,7.45,8.37,6.5,9.21c-0.85,0.75-5.55-5.47-10.57-7.26c-1.86-0.66-3.71,1.17-5.18,1.4c-1.08,0.16-2.73,0.51-3.79,0.21
					l-5.43-1.54c-1.85,0.17-1.9,1.26-3.77,1.66c-2.17,0.46-5.73,0.95-8.49,1.62c-15.91,3.89-21.22,5.69-26.09,5.69
					C960.7,992.26,959.84,911.16,973.06,906.2z"/>
				<path class="st42" d="M962.45,953.49c-1.05-21.24-0.89-47.41,11.01-51.88c4.7-1.76,12.98,8.83,11.49,52.31
					C978.59,954.45,969.26,954.87,962.45,953.49z"/>
				<g>
					<path class="st40" d="M1021.23,846.36c-1.7-0.57-3.38-1.22-4.99-2c-1.83-0.88-4.2-1.91-5.69-2.15
						c-3.15-0.49-8.56-0.16-11.55,3.08c-3.72,4.04-10.34,0.73-9.01,21.89c1.51,23.95,14.82,21.32,15.15,20.91
						c0.32-0.41,11.88-15.32,11.88-15.32s4.04,8.84,4.04,8.51C1021.04,880.97,1041.67,853.24,1021.23,846.36z"/>
					<path class="st21" d="M1011.12,889.86l1.15,8.56c0,0,2.58,12.33-0.74,14.71c-3.31,2.38-14.09-15.06-14.09-15.06l1.14-21.68
						L1011.12,889.86z"/>
					<path class="st43" d="M998.22,883.41c2.74,7.4,9.25,11.94,13.88,13.7l-0.97-7.25l-12.54-13.48L998.22,883.41z"/>
					<path class="st21" d="M1010.44,852.79c7.02-1.13,13.32,4.51,13.14,11.54c-0.08,3.06-0.33,6.87-0.96,10.98
						c-1.53,9.88-8.27,18.58-12.72,17.8c-4.46-0.78-15.67-9.3-13.69-23.35C997.42,861.07,1003.08,853.98,1010.44,852.79z"/>
					<path class="st21" d="M999.3,871.43c-0.38,2.17-2.12,3.68-3.89,3.37c-1.77-0.31-2.9-2.32-2.52-4.49
						c0.38-2.17,2.12-3.68,3.89-3.37C998.54,867.24,999.67,869.25,999.3,871.43z"/>
					<path class="st40" d="M996.77,866.93c0,0,5.39,1.34,7.39-2.13c2-3.47,9.15-10.94,18.24-7.84c9.09,3.1-8-7.54-8.73-7.54
						c-0.73,0-9.45-0.06-9.45-0.06s-6.73,5.53-6.97,6.14c-0.24,0.61-2.18,7.23-2.18,7.23L996.77,866.93z"/>
				</g>
				<path class="st13" d="M1006.63,881.39l9.8,1.87c0,0-0.94,3.69-5.27,2.99C1005.88,885.41,1006.63,881.39,1006.63,881.39z"/>
			</g>
		</g>
		<g>
			<defs>
				
					<ellipse id="SVGID_29_" transform="matrix(0.2898 -0.9571 0.9571 0.2898 1028.6461 2130.4487)" cx="1949.83" cy="372.12" rx="67.17" ry="67.17"/>
			</defs>
			<clipPath id="SVGID_30_">
				<use xlink:href="#SVGID_29_"  style="overflow:visible;"/>
			</clipPath>
			<g class="st44">
				<path class="st8" d="M1895.58,469.18l31.31,3.2c0,0,1.44-25.67,1.44-37.91c0-14.85-1.26-33.99-3.06-33.57
					c-5.04,1.16-11.82,3.94-15.85,9.48C1895.45,429.57,1895.58,469.18,1895.58,469.18z"/>
				<path class="st7" d="M1910.96,431.85c-0.66,4.53-12.69,127.65-12.69,127.65c57.01,27.53,88.46,4.9,88.46,4.9
					s-1.87-86.46,0.37-98.23c1.48-7.79,3.32-59.52-1.72-60.97c-6.47-1.86-13.9-3.83-21.99-4.67c-6.91-0.72-33.74-1.13-38.54,0.48
					C1924.86,401.01,1913.72,412.8,1910.96,431.85z"/>
				<path class="st5" d="M1955.77,376.73l3.67,24.22c0,0-13.42,28.84-21.43,26.34c-6.72-2.1-2.59-27.61-2.59-27.61
					s3.66-13.7,2.57-20.56C1936.9,372.26,1955.77,376.73,1955.77,376.73z"/>
				<path class="st7" d="M1938,379.12c-1.1-6.86,17.78-2.38,17.78-2.38l0.31,2.01c-0.55,1.34-1.23,2.49-2.05,3.38
					c-4.22,4.54-10.81,7.26-16.5,7.47C1938.1,385.89,1938.45,381.93,1938,379.12z"/>
				<g>
					<path class="st5" d="M1958.87,342.47c0.53-0.19,4.28,27.58-2.83,35.23c-7.1,7.64-20.94,10.14-25.91,4.13
						c-5.49-6.66-5.21-36.51,5.83-44.38C1947.01,329.58,1958.87,342.47,1958.87,342.47z"/>
					<path class="st40" d="M1940.17,322.59c8.54,1.74,14.06,6.96,16.1,9.18c3.88,0.46,9.14,2.6,14.58,11.61
						c6.69,11.07,1.75,23.34-6.04,29.36c-7.79,6.02-7.68,12.97-7.68,12.97l-1.23-3.6c-0.91-2.72-1.28-5.61-0.98-8.47
						c0.18-1.71,0.55-3.57,1.26-5.09c1.87-4.02-4.02-6.69-5.68-10.04c-1.27-2.58-1.33-8.47-3.34-12.72l-2.39-3.25
						c0,0-5.53-4.3-10.93-3.09C1928.44,340.67,1929.22,320.36,1940.17,322.59z"/>
					<path class="st5" d="M1950.88,363.46c-0.06,3.39,1.48,6.16,3.44,6.2c1.96,0.03,3.59-2.69,3.64-6.08
						c0.06-3.39-1.48-6.16-3.44-6.2C1952.57,357.35,1950.93,360.07,1950.88,363.46z"/>
				</g>
				<path class="st13" d="M1939.34,371.29l-10.71-0.55c0,0,0.04,4.08,4.74,4.46C1939.11,375.65,1939.34,371.29,1939.34,371.29z"/>
				<path class="st45" d="M2043.2,560.81c0.04-0.26,0.04-0.53,0.01-0.79c-0.84-8.53-7.92-80.13-9.11-83.17
					c-1.08-2.75-32.83-48.16-32.83-48.16l-15.61,21.26l30.54,40.73c0.69,2.59,11.7,50.92,11.7,50.92s2.26,8.81,3.27,14.09
					c-0.46,1.27-0.91,2.47-1.32,3.46c-1.01,2.11-2.21,3.83-3.29,5.29c-1.37,1.83-3.62,5.83-3.9,6.9c-0.32,1.24-0.91,3.83-1.24,5.39
					c-0.33,1.56-0.78,3.38-0.86,4.22c-0.05,0.52-0.58,1.54-0.99,2.27c-0.61,1.08,0.43,2.36,1.61,1.97c1.11-0.37,1.97-1.8,2.51-2.7
					c1.5-2.53,2.3-7.14,2.68-6.89c0.37,0.24,1.69,8.07,1.9,8.95c0.21,0.89,1.79,9.97,2.68,11.63c0.89,1.66,2.07,1.38,2.38,0.34
					c0.27-0.9-0.98-13.61-0.98-13.61s-0.16-1.62,0.55-1.11c0.71,0.51,1.87,12.05,2.36,13.74c0.49,1.69,1.62,2.58,2.58,1.23
					c1.16-1.65-0.84-13.89-0.84-13.89s-0.22-1.54,0.43-1.4c0.66,0.14,1.48,9.98,1.99,10.83c0.51,0.85,1.8,1.16,2.42-0.26
					c0.73-1.67-1.15-12.58-1.15-12.58s0.09-0.87,0.5-0.58c0.41,0.29,1.71,8.62,2.56,9.39c0.71,0.65,1.31,0.02,1.31,0.02
					c1.56-1.06-0.83-8.99-0.81-12.93c0.02-3.94-1.8-8.37-1.26-13.06C2043.04,561.98,2043.14,561.26,2043.2,560.81z"/>
				<path class="st7" d="M2026.08,457.44l-27.12,18.21c0,0-15.29-22.75-23.49-30.85c-10.28-10.14,3.74-41.22,10.37-39.46
					C2000.64,409.28,2026.08,457.44,2026.08,457.44z"/>
			</g>
		</g>
		<g>
			<defs>
				<path id="SVGID_31_" d="M2261.4,636.75c0,31.83-25.8,57.63-57.63,57.63c-31.83,0-57.63-25.8-57.63-57.63
					c0-31.83,25.8-57.63,57.63-57.63C2235.6,579.12,2261.4,604.92,2261.4,636.75z"/>
			</defs>
			<clipPath id="SVGID_32_">
				<use xlink:href="#SVGID_31_"  style="overflow:visible;"/>
			</clipPath>
			<g class="st46">
				<path class="st36" d="M2172.51,684.64c8.05-24.42,17.05-23.38,17.05-23.38l-6.96,51.34c-4.97-1.36-11.45-4.39-16.41-5.79
					C2167.84,699.09,2170.53,690.65,2172.51,684.64z"/>
				<path class="st6" d="M2175.01,621.13c2.46-16.06,17-27.61,32.19-19.82c3.42,1.75,8.05,5.31,10.41,8.34
					c6.38,8.19,8.01,18.31,14.61,26.26c-2.42,1.84-5.35,3.76-8.84,5.61l-4.1-5.47l1.41,6.83c-10.2,4.88-24.61,8.91-44.32,8.8
					C2173.89,640.53,2173.7,629.7,2175.01,621.13z"/>
				<path class="st9" d="M2210.17,656.87c0,0,13.07-1.71,18.94,4.7c5.87,6.41-11.25,57.89-12.32,66.04
					c-1.07,8.16,7.49,28.61,7.49,28.61s-37.37,7.03-47.33,0.42c0,0-0.59-57.43,0.47-63.26c1.07-5.83,9.96-29.53,12.09-31.86
					C2191.65,659.2,2210.17,656.87,2210.17,656.87z"/>
				<path class="st5" d="M2205.23,637.01c0,0,0.08,0.44,0.21,1.18c0.66,3.57,3.21,15.43,4.93,18.69c2.08,3.94-7.12,16.5-15.97,14.97
					c-2.64-0.46,2.23-11.54,1.99-12.72c-0.45-2.25-1.05-5.32-1.67-8.46c-0.35-1.77-0.71-3.57-1.04-5.26
					c-0.95-4.8-1.72-8.73-1.72-8.73L2205.23,637.01z"/>
				<path class="st47" d="M2205.45,638.19c-0.14-0.74-0.21-1.18-0.21-1.18l-13.26-0.33c0,0,0.77,3.93,1.72,8.73
					c0.33,1.68,0.68,3.47,1.03,5.23c2.05-0.3,4.19-1.3,6.33-3.18c2.34-2.05,3.87-4.52,4.8-7.15
					C2205.68,639.47,2205.55,638.74,2205.45,638.19z"/>
				<path class="st5" d="M2196.3,606.79c0,0,6.25-0.72,10.17,4.36c3.92,5.08,8.14,20.79-1.59,29.33
					c-9.74,8.54-19.36-1.13-20.78-11.38C2182.67,618.85,2182.12,606.42,2196.3,606.79z"/>
				<path class="st5" d="M2181.22,628.95c1.16,2.26,3.11,3.52,4.36,2.8c1.24-0.72,1.31-3.13,0.15-5.4c-1.16-2.26-3.11-3.52-4.36-2.8
					C2180.13,624.26,2180.06,626.68,2181.22,628.95z"/>
				<path class="st6" d="M2195.6,605.11c0,0,8.35,14.94,14.33,15.63c5.98,0.69,6.76,8.63,6.76,8.63s-2.14-18.29-8.05-21.82
					C2202.72,604.02,2195.6,605.11,2195.6,605.11z"/>
				<path class="st5" d="M2208.37,624.49c-0.49,2.65,0.49,5.09,2.18,5.44c1.69,0.35,3.46-1.52,3.94-4.17
					c0.49-2.65-0.49-5.09-2.18-5.44C2210.62,619.97,2208.85,621.84,2208.37,624.49z"/>
				<path class="st13" d="M2201,634.13l-9.04,1.78c0,0,0.88,3.39,4.88,2.72C2201.72,637.82,2201,634.13,2201,634.13z"/>
				<path class="st36" d="M2226.75,659.79c0,0,4.93,2.34,9.27,12.44c4.12,9.6,5.33,57.52,5.33,57.52l-17.98-2.97l-6.68-22.1
					c-2.07-8.75-4.39-28.94,4.24-40.75C2223.23,660.79,2225.35,658.88,2226.75,659.79z"/>
			</g>
		</g>
		<g>
			<defs>
				<path id="SVGID_33_" d="M664.2,930.67c0,37.4-30.32,67.72-67.72,67.72c-37.4,0-67.72-30.32-67.72-67.72
					c0-37.4,30.32-67.72,67.72-67.72C633.88,862.95,664.2,893.27,664.2,930.67z"/>
			</defs>
			<clipPath id="SVGID_34_">
				<use xlink:href="#SVGID_33_"  style="overflow:visible;"/>
			</clipPath>
			<g class="st48">
				<path class="st6" d="M628.87,921.03c0.39-9.45-1-18.78-5.23-27.58c-3.64-7.57-12.64-11.86-20.85-11.88
					c-26.07-0.03-29.38,34.41-45.97,47.69c-5.07,4.06-10.74,7.36-15.53,11.74c-17.71,16.16-9.73,46.08,6.53,60.26
					c11.29,9.83,29.03,15.42,42.94,7.73c7.26-4.01,12.77-10.68,16.7-17.99c5.57-10.37,9.17-22.34,13.13-33.4
					C624.81,945.84,628.35,933.59,628.87,921.03z"/>
				<path class="st7" d="M619.12,1008.01c0,0-19.47-19.96-24.48-28.63c-5.01-8.67,3.41-3.03,12.01-5.31
					c3.26-0.86,2.43-19.95,8.59-13.75c10.1,10.18,22.8,27.98,22.8,27.98L619.12,1008.01z"/>
				<path class="st8" d="M591.44,951.57c0,0-17.47-3.45-25.44,3.21c-7.97,6.66,1.71,65.88,1.7,75.69
					c-0.01,9.82-5.47,35.46-5.47,35.46s52.95,11.37,61.36-3.37c0,0,2.39-56.15,2.04-63.21c-0.36-7.06-8.21-35.94-10.38-39.03
					C613.08,957.23,591.44,951.57,591.44,951.57z"/>
				<path class="st5" d="M591.33,924.54c0,0-0.09,0.52-0.26,1.41c-0.79,4.26-3.84,18.41-5.9,22.3c-2.49,4.7,8.53,19.69,19.13,17.86
					c3.16-0.54-2.67-13.77-2.39-15.17c0.54-2.68,1.26-6.34,2.01-10.09c0.42-2.12,0.84-4.26,1.24-6.28
					c1.13-5.73,2.06-10.42,2.06-10.42L591.33,924.54z"/>
				<path class="st7" d="M591.08,925.96c0.17-0.89,0.26-1.41,0.26-1.41l15.89-0.4c0,0-0.93,4.69-2.06,10.42
					c-0.4,2.01-0.82,4.14-1.24,6.24c-2.45-0.36-5.02-1.55-7.59-3.8c-2.8-2.45-4.64-5.39-5.75-8.53
					C590.79,927.48,590.95,926.62,591.08,925.96z"/>
				<path class="st5" d="M602.03,888.49c0,0-7.49-0.86-12.19,5.2c-4.7,6.06-9.76,24.8,1.91,34.99c11.66,10.19,23.19-1.34,24.9-13.57
					C618.36,902.88,619.02,888.05,602.03,888.49z"/>
				<path class="st6" d="M613.71,885.42c0,0-14.6,20.92-28.51,18.12l-0.39-8.93l1.28-3.38l7.04-4.52l11.45-2.61L613.71,885.42z"/>
				<path class="st5" d="M620.1,914.93c-1.39,2.7-3.73,4.2-5.22,3.34c-1.49-0.86-1.57-3.74-0.18-6.44c1.39-2.7,3.73-4.2,5.22-3.34
					C621.41,909.34,621.49,912.23,620.1,914.93z"/>
				<path class="st5" d="M587.58,909.61c0.58,3.17-0.59,6.07-2.62,6.48c-2.03,0.42-4.14-1.81-4.72-4.98
					c-0.58-3.17,0.59-6.07,2.62-6.48C584.88,904.22,587,906.45,587.58,909.61z"/>
				<path class="st13" d="M606.54,921.95l-10.99-0.57c0,0,0.04,4.19,4.86,4.58C606.3,926.43,606.54,921.95,606.54,921.95z"/>
				<path class="st13" d="M606.54,921.95l-10.99-0.57c0,0,0.04,4.19,4.86,4.58C606.3,926.43,606.54,921.95,606.54,921.95z"/>
				<path class="st7" d="M572.59,1007.31c0,0-11.46-25.41-13.21-35.28c-1.74-9.86,6.72-22.24,15.58-21.45
					c8.86,0.8,22.15,44.68,22.15,44.68L572.59,1007.31z"/>
			</g>
		</g>
	</g>
</g>
</svg>
